<svg width="506" height="188" viewBox="0 0 506 188" fill="none" xmlns="http://www.w3.org/2000/svg">
<path d="M473.526 38.197C473.504 38.107 473.458 38.01 473.381 37.904C473.382 38.027 473.437 38.121 473.526 38.197Z" fill="#97FBEA" fill-opacity="0.8"/>
<path d="M20.058 44.563C20.729 44.563 21.4 44.563 22.076 44.563C23.09 44.561 23.345 43.592 22.076 43.456C22.243 42.808 23.664 42.852 25.094 42.9C25 42.026 25.229 40.975 23.076 41.233C23.076 41.42 23.076 41.607 23.076 41.789C21.737 41.789 20.391 41.789 19.049 41.789C19.602 42.596 17.874 44.66 20.058 44.563Z" fill="#97FBEA" fill-opacity="0.8"/>
<path d="M20.0581 28.468C20.0581 28.281 20.0581 28.099 20.0581 27.912C19.1941 26.353 14.613 26.844 10.988 26.805C10.685 27.896 12.3551 27.905 13.0061 28.468C17.0211 28.163 16.0391 28.163 20.0581 28.468Z" fill="#97FBEA" fill-opacity="0.8"/>
<path d="M37.182 26.805C36.516 26.805 35.841 26.805 35.164 26.805C34.977 29.755 42.1969 27.386 43.2249 28.468C43.5629 28.468 43.895 28.468 44.234 28.468C44.906 28.468 45.578 28.468 46.253 28.468C47.262 28.468 48.2599 28.468 49.2689 28.468C48.2869 27.898 47.276 27.347 46.253 26.805C46.159 25.927 43.683 26.367 44.234 25.138C43.225 25.138 42.2159 25.138 41.2069 25.138C41.3629 26.517 40.692 27.442 39.2 27.912C38.409 27.79 38.0249 27.449 38.1909 26.805C37.8539 26.805 37.526 26.805 37.182 26.805Z" fill="#97FBEA" fill-opacity="0.8"/>
<path d="M41.2069 31.797C41.8839 31.797 42.5599 31.797 43.2249 31.797C43.4019 30.595 39.6579 31.546 38.1909 31.241C38.1909 30.872 38.1909 30.503 38.1909 30.135C37.8529 30.135 37.5249 30.135 37.1819 30.135C34.8099 32.314 36.6829 30.785 37.1819 33.465C36.9999 34.675 38.0029 35.231 40.2089 35.127C40.2089 34.574 40.2089 34.02 40.2089 33.465C40.1259 32.676 40.0429 31.892 41.2069 31.797Z" fill="#97FBEA" fill-opacity="0.8"/>
<path d="M44.235 31.797C45.952 31.594 46.14 32.23 46.254 32.908C46.867 31.398 51.527 32.115 53.306 31.241C53.306 30.872 53.306 30.503 53.306 30.135C50.95 30.135 48.605 30.135 46.254 30.135C44.1 29.874 44.333 30.928 44.235 31.797Z" fill="#97FBEA" fill-opacity="0.8"/>
<path d="M34.165 28.468C34.504 27.354 33.958 26.729 32.147 26.805C30.124 26.614 28.996 26.916 29.12 27.912C31.97 27.455 31.736 28.693 34.165 28.468Z" fill="#97FBEA" fill-opacity="0.8"/>
<path d="M79.492 11.816C78.835 11.249 77.182 11.242 77.483 10.149C75.258 10.221 77.051 12.504 76.474 13.479C76.474 13.852 76.474 14.221 76.474 14.59C77.649 14.502 77.322 13.578 77.483 12.925C77.11 11.982 78.269 11.879 79.492 11.816Z" fill="#97FBEA" fill-opacity="0.8"/>
<path d="M76.57 181.977C76.237 181.977 75.9039 181.977 75.5609 181.977C74.8369 183.674 77.303 183.61 76.57 185.307C77.246 185.307 77.917 185.307 78.588 185.307C78.11 183.374 78.4009 181.871 82.6129 182.533C82.4899 181.306 78.339 182.295 76.57 181.977Z" fill="#97FBEA" fill-opacity="0.8"/>
<path d="M245.806 175.869C245.473 175.869 245.14 175.869 244.808 175.869C244.132 175.869 243.461 175.869 242.79 175.869C242.393 174.541 247.376 176.176 245.806 174.204C243.799 174.204 241.781 174.204 239.763 174.204C239.763 174.573 239.763 174.942 239.763 175.316C240.542 175.438 241.76 175.33 241.781 175.869C240.553 175.931 239.398 176.035 239.763 176.978C236.876 176.203 234.649 178.493 233.718 176.978C233.718 176.609 233.718 176.24 233.718 175.869C231.129 175.735 235.103 174.917 233.718 173.648C231.84 174.737 230.037 173.821 227.674 173.648C227.674 174.391 227.674 175.129 227.674 175.869C229.163 177.488 223.181 177.488 224.657 175.869C224.319 175.869 223.991 175.869 223.649 175.869C220.966 175.869 218.277 175.869 215.586 175.869C214.582 175.869 213.579 175.869 212.569 175.869C214.281 178.477 207.836 176.593 209.543 179.199C212.779 179.685 211.633 177.762 213.579 177.534C214.76 177.624 214.432 178.548 214.582 179.199C218.505 178.955 220.668 177.741 223.649 176.978C223.566 177.769 223.482 178.551 224.657 178.645C224.284 177.7 225.449 177.598 226.67 177.533C226.582 178.324 226.503 179.106 227.674 179.198C229.026 177.487 232.158 180.233 233.718 178.644C242.602 178.153 242.385 178.821 247.824 177.532C247.824 177.903 247.824 178.272 247.824 178.644C248.168 178.644 248.495 178.644 248.833 178.644C248.833 178.273 248.833 177.904 248.833 177.532C247.891 176.941 245.12 177.36 245.806 175.869Z" fill="#97FBEA" fill-opacity="0.8"/>
<path d="M181.339 176.978C179.363 177.144 179.342 176.23 178.317 175.869C178.79 177.054 176.876 176.927 175.296 176.978C176.834 175.274 168.72 175.274 170.26 176.978C169.927 176.978 169.584 176.978 169.251 176.978C170.209 174.974 165.282 176.205 163.208 175.869C162.532 175.869 161.865 175.869 161.194 175.869C161.605 177.207 159.359 177.077 160.186 178.645C168.181 177.907 166.277 178.523 175.297 178.645C177.975 178.65 181.05 178.435 182.349 179.199C184.066 178.848 184.004 177.525 185.372 176.978C185.023 178.094 185.579 178.716 187.384 178.645C187.384 178.274 187.384 177.905 187.384 177.533C187.467 178.778 196.684 179.675 196.451 177.533C193.038 176.657 184.72 174.384 181.339 176.978Z" fill="#97FBEA" fill-opacity="0.8"/>
<path d="M268.984 175.869C265.712 176.476 262.045 176.86 260.921 178.645C263.606 178.645 266.295 178.645 268.984 178.645C270.629 178.894 270.629 175.62 268.984 175.869Z" fill="#97FBEA" fill-opacity="0.8"/>
<path d="M277.037 177.534C275.862 177.446 276.189 176.522 276.039 175.869C275.009 176.231 274.987 177.144 273.01 176.978C273.109 177.854 272.875 178.903 275.03 178.645C275.03 178.274 275.03 177.905 275.03 177.533C276.007 177.547 275.809 178.216 276.039 178.645C276.705 178.645 277.375 178.645 278.046 178.645C278.384 178.645 278.717 178.645 279.055 178.645C279.055 177.72 279.055 176.796 279.055 175.869C277.603 175.995 278.7 177.524 277.037 177.534Z" fill="#97FBEA" fill-opacity="0.8"/>
<path d="M293.16 177.534C293.16 176.978 293.16 176.425 293.16 175.869C287.085 175.115 285.743 176.967 281.072 176.978C281.072 177.534 281.072 178.089 281.072 178.645C281.405 178.645 281.738 178.645 282.081 178.645C285.525 176.918 284.869 179.238 291.142 178.645C290.773 177.7 291.929 177.598 293.16 177.534Z" fill="#97FBEA" fill-opacity="0.8"/>
<path d="M208.538 173.648C205.364 174.273 206.255 173.699 202.493 173.648C202.81 174.4 203.934 174.709 203.502 175.869C203.913 177.207 201.666 177.077 202.493 178.645C202.831 178.645 203.164 178.645 203.502 178.645C203.502 178.274 203.502 177.905 203.502 177.533C204.73 177.597 205.89 177.699 205.514 178.645C206.523 178.645 207.528 178.645 208.537 178.645C208.537 177.72 208.537 176.796 208.537 175.869C209.287 175.815 209.287 173.703 208.538 173.648Z" fill="#97FBEA" fill-opacity="0.8"/>
<path d="M70.525 174.759C70.713 172.63 69.7039 174.556 67.5089 174.203C66.6969 173.818 64.7479 173.338 64.4819 174.203C64.4819 174.572 64.4819 174.941 64.4819 175.315C66.2499 174.992 70.401 175.986 70.525 174.759Z" fill="#97FBEA" fill-opacity="0.8"/>
<path d="M106.79 172.536C106.89 173.41 106.661 174.461 108.81 174.203C108.81 173.461 108.81 172.723 108.81 171.985C108.139 171.985 107.467 171.985 106.79 171.985C106.457 171.985 106.119 171.985 105.792 171.985C105.116 171.985 104.44 171.985 103.774 171.985C103.774 173.092 103.774 174.203 103.774 175.315C104.44 175.315 105.115 175.315 105.792 175.315C106.333 174.508 104.606 172.446 106.79 172.536Z" fill="#97FBEA" fill-opacity="0.8"/>
<path d="M170.259 175.315C170.581 172.506 174.785 177.266 176.304 174.203C176.304 174.016 176.304 173.834 176.304 173.648C172.818 174.45 171.549 173.028 169.25 174.203C169.474 174.635 169.282 175.299 170.259 175.315Z" fill="#97FBEA" fill-opacity="0.8"/>
<path d="M64.4821 171.985C64.1491 171.985 63.8171 171.985 63.4731 171.985C61.7561 172.695 60.7471 173.807 60.4551 175.315C65.5101 176.433 61.9231 172.79 64.4821 172.536C64.4821 172.354 64.4821 172.167 64.4821 171.985Z" fill="#97FBEA" fill-opacity="0.8"/>
<path d="M466.423 170.318C465.243 170.41 465.575 171.331 465.425 171.985C466.777 172.158 467.338 172.774 469.45 172.536C469.149 171.409 467.432 171.061 466.423 170.318Z" fill="#97FBEA" fill-opacity="0.8"/>
<path d="M19.151 140.899C18.818 140.899 18.48 140.899 18.146 140.899C16.919 140.961 15.766 141.063 16.128 142.008C20.217 141.794 17.242 145.467 18.146 147.005C19.646 145.799 19.208 143.518 21.164 142.564C15.671 142.898 25.205 140.869 19.151 140.899Z" fill="#97FBEA" fill-opacity="0.8"/>
<path d="M42.324 134.234C41.938 134.234 41.554 134.234 41.17 134.234C41.118 133.619 41.241 132.906 40.21 132.826C39.201 133.569 37.484 133.917 37.183 135.045C38.766 135.223 39.478 134.922 40.305 134.687C40.305 134.907 40.305 135.128 40.305 135.347C40.305 135.534 40.305 135.716 40.305 135.903C40.305 136.459 40.305 137.014 40.305 137.568C40.977 137.568 41.648 137.568 42.324 137.568C43.333 137.568 44.332 137.568 45.34 137.568C45.34 137.939 45.34 138.308 45.34 138.679C43.878 138.983 40.138 138.031 40.304 139.235C44.299 138.516 42.364 141.059 46.349 140.344C49.429 139.424 48.565 138.926 51.385 138.679C50.157 138.617 49.003 138.513 49.376 137.568C50.157 137.446 51.364 137.554 51.385 137.014C50.375 137.014 49.376 137.014 48.367 137.014C47.697 137.014 47.02 137.014 46.349 137.014C47.082 135.317 44.613 135.381 45.34 133.684C44.331 133.684 43.332 133.684 42.324 133.684C42.324 133.865 42.324 134.052 42.324 134.234Z" fill="#97FBEA" fill-opacity="0.8"/>
<path d="M490.605 95.381C491.275 95.381 491.946 95.381 492.617 95.381C492.529 94.592 492.451 93.808 493.627 93.714C494.48 95.345 496.154 92.992 498.663 93.714C498.663 93.901 498.663 94.083 498.663 94.27C501.169 93.89 497.174 92.58 496.65 92.052C495.792 91.946 495.698 92.269 495.645 92.603C492.172 92.847 489.991 92.386 487.584 92.052C487.584 92.603 487.584 93.159 487.584 93.714C491.161 92.849 488.187 95.6 490.605 95.381Z" fill="#97FBEA" fill-opacity="0.8"/>
<path d="M462.127 85.58C462.468 85.564 462.885 85.505 463.407 85.39C462.877 85.444 462.46 85.508 462.127 85.58Z" fill="#97FBEA" fill-opacity="0.8"/>
<path d="M484.557 82.055C485.233 82.055 485.904 82.055 486.575 82.055C488.759 82.152 487.032 80.088 487.584 79.281C486.242 79.281 484.896 79.281 483.557 79.281C483.557 79.099 483.557 78.912 483.557 78.725C481.405 78.467 481.633 79.518 481.539 80.392C482.969 80.344 484.39 80.3 484.557 80.948C483.287 81.084 483.542 82.053 484.557 82.055Z" fill="#97FBEA" fill-opacity="0.8"/>
<path d="M486.574 65.404C486.574 65.591 486.574 65.773 486.574 65.96C490.594 65.656 489.611 65.656 493.626 65.96C494.277 65.397 495.947 65.388 495.644 64.297C492.02 64.336 487.438 63.845 486.574 65.404Z" fill="#97FBEA" fill-opacity="0.8"/>
<path d="M471.468 64.297C470.791 64.297 470.116 64.297 469.45 64.297C469.106 64.297 468.779 64.297 468.441 64.297C468.608 64.94 468.223 65.282 467.432 65.404C465.94 64.934 465.269 64.009 465.425 62.63C464.415 62.63 463.407 62.63 462.398 62.63C462.949 63.859 460.472 63.419 460.379 64.297C459.356 64.839 458.345 65.39 457.363 65.96C458.372 65.96 459.37 65.96 460.379 65.96C461.055 65.96 461.726 65.96 462.398 65.96C462.737 65.96 463.069 65.96 463.407 65.96C464.435 64.878 471.656 67.246 471.468 64.297Z" fill="#97FBEA" fill-opacity="0.8"/>
<path d="M356.625 178.645C354.207 178.982 352.021 179.443 348.562 179.199C347.695 180.988 358.857 181.163 356.625 178.645Z" fill="#97FBEA" fill-opacity="0.8"/>
<path d="M387.849 177.534C386.87 177.548 387.068 178.217 386.84 178.646C386.84 178.83 386.84 179.015 386.84 179.2C387.183 179.2 387.516 179.2 387.849 179.2C388.077 179.633 387.879 180.297 388.858 180.311C390.189 180.304 389.773 179.338 390.87 179.2C393.975 178.787 392.104 181.114 395.912 180.311C396.135 179.88 395.936 179.216 396.915 179.2C394.497 178.311 392.765 177.047 387.849 177.534Z" fill="#97FBEA" fill-opacity="0.8"/>
<path d="M405.981 178.645C404.212 178.963 400.062 177.974 399.938 179.199C399.938 179.57 399.938 179.941 399.938 180.31C403.199 180.623 405.004 180.139 405.981 179.199C407.698 178.996 407.886 179.632 408 180.31C409.586 180.259 408.79 178.894 411.016 179.199C411.194 177.995 407.449 178.947 405.981 178.645Z" fill="#97FBEA" fill-opacity="0.8"/>
<path d="M438.22 175.315C438.22 175.868 438.22 176.424 438.22 176.978C436.067 176.722 436.301 177.771 436.202 178.645C436.202 178.829 436.202 179.014 436.202 179.199C438.63 179.429 438.391 178.187 441.238 178.645C441.238 178.829 441.238 179.014 441.238 179.199C442.424 179.114 444.098 179.296 444.265 178.645C442.111 178.903 442.346 177.854 442.247 176.978C443.256 176.978 444.265 176.978 445.274 176.978C445.274 176.609 445.274 176.24 445.274 175.869C442.091 176.143 441.716 174.868 438.22 175.315Z" fill="#97FBEA" fill-opacity="0.8"/>
<path d="M404.972 176.978C405.315 176.978 405.648 176.978 405.981 176.978C406.659 176.978 407.324 176.978 408 176.978C406.434 175.006 411.422 176.644 411.016 175.315C407.958 175.292 404.389 174.99 404.972 176.978Z" fill="#97FBEA" fill-opacity="0.8"/>
<path d="M363.674 175.315C364.458 175.437 365.66 175.329 365.686 175.868C366.024 175.868 366.367 175.868 366.695 175.868C366.918 175.437 367.537 175.222 368.713 175.315C368.713 174.759 368.713 174.203 368.713 173.648C367.323 173.625 366.502 173.908 365.686 174.203C364.457 174.268 363.298 174.37 363.674 175.315Z" fill="#97FBEA" fill-opacity="0.8"/>
<path d="M384.828 171.985C384.828 172.536 384.828 173.092 384.828 173.648C385.504 173.648 386.175 173.648 386.84 173.648C388.432 173.597 390.335 173.722 389.867 172.537C387.018 172.998 387.257 171.754 384.828 171.985Z" fill="#97FBEA" fill-opacity="0.8"/>
<path d="M247.824 159.771C246.316 158.48 245.358 158.925 242.79 159.215C242.79 159.584 242.79 159.958 242.79 160.327C244.256 160.022 248.001 160.975 247.824 159.771Z" fill="#97FBEA" fill-opacity="0.8"/>
<path d="M254.878 158.659C255.699 156.867 247.274 157.358 247.824 157.552C248.052 157.981 247.856 158.645 248.833 158.659C247.553 160.845 251.205 160.312 253.869 160.326C255.455 160.273 257.363 160.399 256.896 159.214C256.116 159.093 254.905 159.201 254.878 158.659Z" fill="#97FBEA" fill-opacity="0.8"/>
<path d="M469.45 67.627C469.106 67.627 468.779 67.627 468.441 67.627C468.441 67.996 468.441 68.365 468.441 68.733C466.973 69.037 463.23 68.087 463.407 69.289C464.072 69.289 464.749 69.289 465.425 69.289C466.589 69.384 466.506 70.168 466.423 70.956C466.423 71.512 466.423 72.065 466.423 72.618C468.629 72.722 469.632 72.166 469.45 70.956C469.949 68.277 471.822 69.806 469.45 67.627Z" fill="#97FBEA" fill-opacity="0.8"/>
<path d="M504.706 107.591C500.878 108.036 503.428 104.964 502.693 103.705C503.364 103.705 504.035 103.705 504.706 103.705C504.124 102.73 505.923 100.444 503.697 100.375C503.026 100.375 502.355 100.375 501.69 100.375C499.973 100.58 499.787 99.941 499.672 99.266C499.672 99.079 499.672 98.895 499.672 98.71C498.637 98.168 497.633 97.613 496.65 97.043C496.313 97.043 495.974 97.043 495.645 97.043C494.968 97.043 494.293 97.043 493.627 97.043C492.816 97.431 490.865 97.908 490.606 97.043C489.58 96.686 489.56 95.765 487.584 95.932C487.667 96.723 487.751 97.505 486.575 97.599C484.431 97.86 484.655 96.808 484.557 95.932C483.376 96.024 483.709 96.947 483.557 97.599C482.631 97.688 482.197 97.508 481.759 97.329C481.629 96.978 481.518 96.61 481.44 96.191C481.471 96.111 481.487 96.04 481.498 95.972C482.524 95.962 483.763 96.069 483.558 95.381C484.897 95.381 486.243 95.381 487.585 95.381C487.585 94.825 487.585 94.27 487.585 93.714C486.606 93.7 486.804 93.036 486.576 92.603C484.006 93.152 482.363 94.554 480.531 92.603C479.908 92.603 479.287 92.603 478.665 92.603C478.475 91.544 479.648 89.874 478.418 89.53C478.418 88.603 478.418 87.678 478.418 86.754C477.742 86.754 477.074 86.754 476.398 86.754C476.43 86.214 477.637 86.323 478.418 86.198C479.108 84.706 476.331 85.126 475.395 84.533C474.225 84.441 473.602 84.655 473.383 85.089C473.383 86.014 473.383 86.938 473.383 87.863C474.049 87.863 474.72 87.863 475.395 87.863C475.728 87.863 476.066 87.863 476.399 87.863C476.399 88.603 476.399 89.344 476.399 90.084C476.525 91.082 475.401 91.385 473.383 91.195C473.383 91.382 473.383 91.564 473.383 91.751C474.487 91.805 475.528 91.898 475.458 92.603C473.453 92.603 471.457 92.603 469.452 92.603C468.382 94.432 470.761 94.358 473.127 94.293C473.036 94.644 472.87 94.953 472.374 95.08C472.706 95.08 473.039 95.08 473.383 95.08C473.154 95.511 473.351 96.175 472.374 96.191C472.374 96.367 472.374 96.544 472.374 96.721C472.181 96.525 472.169 96.263 472.47 95.932C471.45 96.296 471.429 97.209 469.452 97.043C467.731 96.082 469.608 95.59 468.443 93.713C466.726 93.916 466.54 93.279 466.425 92.602C465.344 92.602 464.263 92.602 463.181 92.602C462.922 91.767 462.42 91.066 461.889 90.381C462.24 90.296 462.442 90.13 462.399 89.828C462.235 89.408 461.596 89.251 460.935 89.106C460.673 88.716 460.444 88.308 460.285 87.861C460.285 87.782 460.285 87.703 460.285 87.624C463.903 87.606 458.946 86.261 462.129 85.579C460.821 85.641 460.678 85.062 460.447 84.532C460.727 84.532 461.006 84.532 461.295 84.532C460.269 83.086 461.852 81.589 462.768 81.847C462.883 82.085 463.034 82.303 463.296 82.459C463.356 82.701 463.365 83.017 463.302 83.42C463.64 83.42 463.978 83.42 464.311 83.42C464.268 83.173 464.234 82.931 464.213 82.695C464.537 82.711 464.933 82.688 465.428 82.61C465.428 82.427 465.428 82.241 465.428 82.054C464.346 79.985 469.203 81.178 468.444 79.28C468.782 79.28 469.11 79.28 469.453 79.28C469.453 78.724 469.453 78.173 469.453 77.617C471.471 77.617 473.48 77.617 475.498 77.617C476.507 77.617 477.516 77.617 478.514 77.617C480.199 77.617 481.874 77.617 483.559 77.617C483.559 77.43 483.559 77.246 483.559 77.061C486.639 76.658 486.519 78.018 489.604 77.617C491.539 78.999 488.064 79.896 490.608 80.947C491.455 79.321 493.849 81.279 495.647 80.947C495.647 80.391 495.647 79.836 495.647 79.28C496.985 79.28 498.332 79.28 499.674 79.28C499.674 78.542 499.674 77.8 499.674 77.062C498.665 77.062 497.656 77.062 496.652 77.062C496.652 76.693 496.652 76.319 496.652 75.951C496.652 75.766 496.652 75.582 496.652 75.395C495.179 76.191 492.746 76.211 493.629 74.286C492.619 74.286 491.611 74.286 490.608 74.286C490.187 76.954 490.238 73.626 487.586 74.286C487.627 75.049 487.106 75.503 486.577 75.951C485.193 75.974 484.361 75.69 483.559 75.395C481.968 75.344 480.065 75.469 480.532 74.286C481.697 73.463 481.697 72.889 480.532 72.066C480.491 71.303 481.006 70.849 481.541 70.401C482.55 70.401 483.559 70.401 484.559 70.401C483.861 72.898 486.628 71.886 487.586 70.957C487.586 70.77 487.586 70.583 487.586 70.401C488.251 70.401 488.928 70.401 489.604 70.401C491.091 70.503 490.519 71.743 490.608 72.619C491.278 72.619 491.949 72.619 492.62 72.619C492.62 71.512 492.62 70.401 492.62 69.289C491.84 69.165 490.635 69.275 490.608 68.733C489.016 68.687 489.811 67.317 487.586 67.627C487.753 68.27 487.361 68.611 486.577 68.733C485.906 68.733 485.235 68.733 484.559 68.733C483.559 68.733 482.55 68.733 481.541 68.733C480.194 68.733 478.852 68.733 477.515 68.733C476.506 68.733 475.497 68.733 474.488 68.733C474.488 69.845 474.488 70.956 474.488 72.065C473.479 72.065 472.47 72.065 471.47 72.065C473.707 72.498 474.164 73.907 477.515 73.73C477.421 74.604 474.945 74.164 475.497 75.395C471.47 76.449 472.543 71.911 469.452 74.286C471.263 74.217 471.803 74.835 471.47 75.951C469.999 76.256 466.259 75.303 466.425 76.507C466.425 76.694 466.425 76.876 466.425 77.063C466.092 77.063 465.76 77.063 465.427 77.063C464.973 76.012 466.789 73.719 463.409 74.287C463.565 74.933 463.184 75.274 462.4 75.396C462.4 75.677 462.4 75.957 462.4 76.238C461.657 76.25 460.909 76.261 460.53 76.473C460.407 76.155 460.422 75.761 460.381 75.397C458.915 75.881 456.485 75.84 457.365 77.62C458.413 77.62 459.464 77.62 460.513 77.62C460.705 77.927 460.993 78.181 461.296 78.43C459.944 78.43 458.607 78.43 457.26 78.43C457.062 79.337 458.099 79.564 459.373 79.661C459.373 79.906 459.373 80.151 459.373 80.394C460.049 80.394 460.72 80.394 461.391 80.394C462.02 80.501 462.289 80.805 462.469 81.159C459.479 81.038 457.46 81.451 455.251 81.76C455.36 82.438 455.554 83.075 457.26 82.867C457.26 83.423 457.26 83.978 457.26 84.534C456.825 85.545 457.523 85.932 458.006 86.437C457.157 86.984 455.963 87.341 454.543 87.575C454.565 87.402 454.508 87.184 454.339 86.905C454.339 86.585 454.339 86.265 454.339 85.944C456.148 86.013 456.7 85.395 456.357 84.279C455.037 84.279 453.718 84.279 452.401 84.279C453.331 82.712 448.822 84.136 449.208 82.866C450.435 82.806 451.59 82.705 451.215 81.759C449.591 81.913 449.478 81.233 448.199 81.203C447.783 79.866 450.035 79.997 449.208 78.429C449.08 78.109 448.976 77.83 448.885 77.569C451.328 77.425 453.563 77.395 453.33 78.726C454.36 78.366 454.38 77.453 456.357 77.619C456.357 77.063 456.357 76.508 456.357 75.952C451.779 76.992 454.983 73.745 451.323 74.287C451.734 75.622 449.481 75.493 450.313 77.063C449.461 77.188 448.982 77.107 448.689 76.924C448.396 75.787 448.565 75.037 449.21 73.429C449.798 70.851 447.831 70.078 449.21 68.437C448.444 68.309 447.83 68.185 447.334 68.064C447.299 67.929 447.278 67.786 447.287 67.627C446.87 67.627 446.45 67.627 446.032 67.627C444.561 66.834 448.471 66.279 451.217 66.214C451.217 66.129 451.217 66.045 451.217 65.96C451.253 65.96 451.288 65.96 451.324 65.96C451.286 65.942 451.253 65.924 451.217 65.906C451.217 65.454 451.217 65.002 451.217 64.549C451.217 64.384 451.217 64.217 451.217 64.052C452.043 63.683 453.33 63.63 454.34 64.297C454.37 63.753 455.577 63.861 456.358 63.741C456.358 63.185 456.358 62.63 456.358 62.074C454.807 62.362 453.107 62.572 451.167 62.65C451.126 61.851 452.586 61.441 451.217 61.219C451.217 61.037 451.217 60.856 451.217 60.674C453.025 60.616 454.756 60.634 456.358 60.965C456.696 60.965 457.029 60.965 457.367 60.965C457.367 60.778 457.367 60.594 457.367 60.409C459.042 60.409 460.721 60.409 462.403 60.409C464.41 61.749 467.199 59.484 469.455 60.965C469.581 59.738 473.732 60.727 475.5 60.409C478.578 60.005 478.465 61.366 481.543 60.965C482.396 59.337 484.071 61.687 486.579 60.965C486.392 60.492 486.974 60.441 487.588 60.409C487.006 61.034 501.444 61.274 496.654 60.409C496.311 59.296 496.856 58.673 498.667 58.742C497.335 57.07 492.342 57.418 490.61 55.968C490.271 55.968 489.933 55.968 489.606 55.968C487.363 55.539 486.901 54.126 483.561 54.301C483.531 55.768 484.492 57.781 480.534 57.08C481.111 56.105 479.318 53.817 481.543 53.75C481.543 53.377 481.543 53.008 481.543 52.639C481.366 51.991 479.951 52.035 478.516 52.083C478.516 50.971 478.516 49.864 478.516 48.753C480.504 48.919 480.512 48.004 481.543 47.642C481.543 47.458 481.543 47.273 481.543 47.089C482.208 47.089 482.884 47.089 483.561 47.089C483.561 46.533 483.561 45.978 483.561 45.422C483.561 44.497 483.561 43.573 483.561 42.648C480.316 42.77 479.291 41.666 475.5 42.092C474.709 41.97 474.325 41.628 474.491 40.981C474.491 40.799 474.491 40.612 474.491 40.425C474.859 39.484 473.7 39.378 472.473 39.318C471.419 39.318 470.36 39.318 469.303 39.318C469.235 38.244 471.134 38.259 470.359 36.796C473.531 36.16 472.804 37.668 474.394 37.905C477.193 38.156 473.599 34.88 476.402 35.129C479.67 34.816 481.47 35.3 482.447 36.241C482.447 36.797 482.447 37.352 482.447 37.906C480.43 38.095 479.295 37.793 479.431 36.797C476.206 38.075 481.833 39.128 483.456 39.573C485.729 39.158 483.851 36.457 484.465 35.129C485.536 34.613 484.777 33.084 487.486 33.467C487.319 34.11 487.711 34.454 488.491 34.576C488.948 35.667 495.559 35.574 493.53 33.467C495.709 33.372 493.983 35.436 494.534 36.241C494.762 36.674 495.382 36.887 496.551 36.797C496.884 36.797 497.216 36.797 497.56 36.797C502.377 37.604 500.057 34.477 500.583 32.911C501.254 32.911 501.919 32.911 502.596 32.911C502.929 32.911 503.262 32.911 503.605 32.911C504.271 32.911 504.942 32.911 505.618 32.911C505.618 32.542 505.618 32.168 505.618 31.8C505.009 30.656 507.242 27.944 503.605 28.47C503.262 28.47 502.929 28.47 502.596 28.47C502.596 28.283 502.596 28.101 502.596 27.914C502.507 27.128 502.429 26.341 503.605 26.252C503.605 25.88 503.605 25.509 503.605 25.141C504.416 22.839 500.672 23.056 499.574 21.809C499.574 21.625 499.574 21.44 499.574 21.253C497.549 21.444 496.416 21.142 496.551 20.146C496.535 19.417 493.758 19.438 493.53 20.146C491.518 20.146 489.5 20.146 487.485 20.146C485.056 20.372 485.29 19.129 482.445 19.59C482.491 18.824 481.973 18.37 481.442 17.923C478.732 18.306 479.491 16.775 478.42 16.26C478.42 14.78 478.42 13.299 478.42 11.819C477.744 11.819 477.076 11.819 476.4 11.819C476.483 11.028 476.567 10.246 475.396 10.152C472.541 10.613 472.785 9.368 470.357 9.599C470.524 8.953 470.137 8.61001 469.348 8.48801C468.35 8.48801 467.341 8.48801 466.332 8.48801C466.934 7.04401 465.925 6.48901 463.304 6.82101C463.304 6.45201 463.304 6.08299 463.304 5.71399C463.137 5.06599 461.712 5.10999 460.288 5.15799C460.065 4.72399 459.446 4.50999 458.27 4.60199C458.92 2.81299 447.545 2.81299 448.2 4.60199C448.2 4.78899 448.2 4.97099 448.2 5.15799C444.808 4.77299 444.897 6.29901 443.164 6.82001C442.821 6.82001 442.488 6.82001 442.155 6.82001C442.327 5.24501 435.559 7.49099 437.121 5.15799C436.778 5.15799 436.445 5.15799 436.112 5.15799C432.648 5.40199 430.463 4.93599 428.049 4.60199C427.072 4.58799 427.268 3.922 427.04 3.491C426.031 3.491 425.033 3.491 424.024 3.491C423.93 2.617 421.454 3.057 422.006 1.828C418.062 0.950003 419.924 3.267 417.979 3.491C417.949 2.954 416.742 3.062 415.961 2.935C415.961 2.384 415.961 1.82801 415.961 1.27301C417.678 1.47601 417.864 0.838987 417.979 0.161987C415.961 0.161987 413.943 0.161987 411.936 0.161987C411.936 0.532987 411.936 0.90401 411.936 1.27301C413.085 3.01601 410.348 2.622 409.917 3.491C409.579 3.491 409.251 3.491 408.908 3.491C409.251 2.38 408.712 1.757 406.89 1.828C405.554 1.828 404.212 1.828 402.865 1.828C402.865 2.197 402.865 2.566 402.865 2.935C396.774 2.356 398.277 5.95801 394.802 6.82101C394.938 7.82201 393.808 8.12401 391.786 7.93201C391.558 7.50301 391.755 6.83901 390.777 6.82101C387.812 5.22301 383.511 7.60101 378.689 6.82101C378.024 6.82101 377.347 6.82101 376.671 6.82101C375.666 6.82101 374.662 6.82101 373.653 6.82101C372.644 6.82101 371.635 6.82101 370.632 6.82101C369.29 6.82101 367.943 6.82101 366.601 6.82101C364.925 6.82101 363.245 6.82101 361.565 6.82101C360.556 6.82101 359.547 6.82101 358.544 6.82101C357.055 6.18201 356 6.18201 354.512 6.82101C353.846 6.82101 353.17 6.82101 352.499 6.82101C351.158 6.82101 349.81 6.82101 348.469 6.82101C347.793 6.82101 347.128 6.82101 346.456 6.82101C346.118 6.82101 345.785 6.82101 345.447 6.82101C343.016 7.04901 343.257 5.80899 340.411 6.26999C338.326 6.59699 333.794 5.58301 333.359 6.82101C332.686 6.82101 332.021 6.82101 331.345 6.82101C328.267 7.22401 327.674 6.25599 325.302 6.26999C326.134 4.69699 323.877 4.828 324.293 3.491C323.289 3.491 322.28 3.491 321.27 3.491C321.047 3.062 320.428 2.848 319.258 2.935C318.925 2.935 318.582 2.935 318.249 2.935C317.573 2.935 316.908 2.935 316.237 2.935C314.224 2.935 312.206 2.935 310.192 2.935C307.171 2.935 304.149 2.935 301.128 2.935C301.128 3.122 301.128 3.309 301.128 3.491C300.452 3.491 299.784 3.491 299.114 3.491C297.351 4.003 296.889 5.23001 297.101 6.82101C297.101 7.19501 297.101 7.56401 297.101 7.93201C296.425 7.93201 295.749 7.93201 295.083 7.93201C293.626 8.61001 293.731 10.148 291.058 10.153C291.058 10.525 291.058 10.893 291.058 11.264C289.424 11.107 289.32 11.788 288.03 11.82C285.003 11.08 280.323 11.253 275.942 11.264C275.942 11.448 275.942 11.633 275.942 11.82C274.933 11.82 273.935 11.82 272.926 11.82C274.487 13.791 269.499 12.154 269.899 13.483C269.228 13.483 268.558 13.483 267.882 13.483C267.549 13.483 267.216 13.483 266.882 13.483C265.707 13.575 265.084 13.361 264.864 12.929C264.864 12.558 264.864 12.189 264.864 11.82C264.011 11.921 263.908 11.603 263.855 11.264C261.837 11.264 259.83 11.264 257.812 11.264C254.732 10.861 254.847 12.221 251.768 11.82C251.029 10.831 249.937 11.737 248.751 11.82C248.751 12.189 248.751 12.558 248.751 12.929C247.743 12.929 246.734 12.929 245.725 12.929C241.968 12.336 244.132 15.011 240.689 14.594C239.103 14.543 239.898 13.178 237.662 13.483C238.266 12.044 237.257 11.488 234.646 11.82C234.588 11.107 233.355 11.05 233.637 10.153C231.961 10.153 230.275 10.153 228.601 10.153C226.245 10.153 223.9 10.153 221.547 10.153C220.877 10.153 220.2 10.153 219.529 10.153C219.478 9.81402 219.384 9.49601 218.521 9.60001C213.747 9.82801 209.787 9.60501 207.441 8.48901C207.441 8.30201 207.441 8.12001 207.441 7.93301C207.109 7.93301 206.776 7.93301 206.432 7.93301C207.036 6.49001 206.027 5.934 203.416 6.271C203.384 6.811 202.177 6.70199 201.398 6.82199C200.784 6.79199 200.207 6.741 200.389 6.271C200.389 5.897 200.389 5.528 200.389 5.16C197.548 5.616 197.787 4.378 195.353 4.604C195.353 4.048 195.353 3.49301 195.353 2.93701C193.772 2.70001 194.495 1.19399 191.328 1.82999C190.547 1.70299 189.335 1.81199 189.31 1.27399C188.976 1.27399 188.643 1.27399 188.3 1.27399C186.626 1.27399 184.951 1.27399 183.266 1.27399C183.099 1.91999 181.674 1.87599 180.244 1.82999C180.244 2.75499 180.244 3.679 180.244 4.604C180.186 4.943 180.094 5.261 179.241 5.16C179.126 5.838 178.938 6.474 177.221 6.271C176.888 6.271 176.555 6.271 176.213 6.271C173.196 6.271 170.175 6.271 167.148 6.271C167.148 5.897 167.148 5.528 167.148 5.16C166.477 5.16 165.81 5.16 165.134 5.16C163.377 5.201 162.003 5.035 161.104 4.604C161.104 4.235 161.104 3.86601 161.104 3.49301C158.638 3.98401 157.412 5.158 153.046 4.604C152.714 4.604 152.381 4.604 152.043 4.604C152.043 4.235 152.043 3.86601 152.043 3.49301C151.82 2.18801 143.642 0.424012 142.976 2.93701C143.32 4.05301 142.769 4.676 140.964 4.604C139.955 4.604 138.946 4.604 137.937 4.604C137.937 4.235 137.937 3.86601 137.937 3.49301C136.6 3.49301 135.249 3.49301 133.912 3.49301C133.74 2.84501 132.319 2.89101 130.889 2.93701C128.986 2.69301 124.814 3.69399 125.855 1.82999C125.064 1.95199 124.68 2.29401 124.846 2.93701C123.837 2.93701 122.834 2.93701 121.823 2.93701C121.694 4.16401 117.553 3.17501 115.78 3.49301C114.771 3.49301 113.767 3.49301 112.758 3.49301C112.082 3.49301 111.415 3.49301 110.738 3.49301C108.637 3.73001 108.076 3.11501 106.713 2.93701C105.704 2.93701 104.695 2.93701 103.692 2.93701C102.906 3.06401 101.698 2.95601 101.679 3.49301C101.449 3.92401 101.647 4.591 100.67 4.604C98.989 4.604 97.309 4.604 95.634 4.604C95.993 2.736 91.266 3.67901 89.589 2.93701C88.799 2.81501 88.414 2.47299 88.58 1.82999C84.764 1.02799 86.645 3.35401 83.546 2.93701C82.537 2.93701 81.528 2.93701 80.519 2.93701C79.178 2.93701 77.834 2.93701 76.492 2.93701C75.026 3.24101 71.281 2.29101 71.458 3.49301C69.102 3.49301 66.755 3.49301 64.404 3.49301C64.404 3.31101 64.404 3.12401 64.404 2.93701C62.938 3.24101 59.193 2.29101 59.37 3.49301C59.026 3.49301 58.694 3.49301 58.361 3.49301C56.681 3.49301 55 3.49301 53.325 3.49301C52.981 3.49301 52.649 3.49301 52.316 3.49301C52.316 3.31101 52.316 3.12401 52.316 2.93701C49.238 2.53801 49.351 3.89601 46.273 3.49301C45.264 3.49301 44.254 3.49301 43.245 3.49301C43.226 2.95601 42.018 3.06401 41.227 2.93701C41.227 2.56801 41.227 2.19899 41.227 1.82999C40.895 1.82999 40.562 1.82999 40.229 1.82999C38.211 1.82999 36.193 1.82999 34.184 1.82999C32.957 1.88999 31.798 1.99601 32.166 2.93701C32.166 3.12401 32.166 3.31101 32.166 3.49301C32.332 4.14101 31.948 4.482 31.157 4.604C27.365 4.177 26.34 5.282 23.096 5.16C23.096 6.084 23.096 7.00899 23.096 7.93399C23.096 8.48999 23.096 9.04501 23.096 9.60101C23.773 9.60101 24.448 9.60101 25.114 9.60101C25.114 9.78501 25.114 9.96999 25.114 10.154C26.144 10.516 26.153 11.432 28.141 11.265C28.141 12.376 28.141 13.484 28.141 14.595C26.706 14.547 25.291 14.503 25.114 15.151C25.114 15.52 25.114 15.889 25.114 16.262C27.339 16.329 25.546 18.617 26.123 19.592C22.165 20.293 23.127 18.28 23.096 16.813C19.756 16.638 19.294 18.051 17.051 18.48C16.723 18.48 16.386 18.48 16.047 18.48C14.314 19.93 9.32098 19.582 7.98998 21.254C9.80098 21.185 10.346 21.808 10.003 22.921C5.21298 23.786 19.651 23.546 19.069 22.921C19.683 22.953 20.265 23.004 20.078 23.477C22.586 24.199 24.261 21.849 25.114 23.477C28.192 23.878 28.079 22.518 31.157 22.921C32.925 23.239 37.076 22.25 37.202 23.477C39.459 21.996 42.247 24.261 44.254 22.921C45.935 22.921 47.615 22.921 49.29 22.921C49.29 23.106 49.29 23.29 49.29 23.477C49.628 23.477 49.961 23.477 50.299 23.477C54.71 22.564 60.088 24.023 65.414 22.921C65.414 23.477 65.414 24.031 65.414 24.586C65.113 25.716 63.385 26.067 62.387 26.809C59.22 26.17 59.942 27.678 58.362 27.916C57.525 26.348 59.782 26.479 59.371 25.142C55.698 25.315 52.806 25.052 50.299 24.586C50.299 25.142 50.299 25.697 50.299 26.253C51.08 26.373 52.287 26.264 52.317 26.809C54.49 25.372 57.946 27.273 55.333 28.472C56.682 28.472 58.018 28.472 59.37 28.472C61.938 27.52 62.891 29.109 64.404 27.916C64.737 27.916 65.07 27.916 65.413 27.916C66.162 29.171 71.063 28.133 73.465 28.472C72.451 30.142 75.713 29.454 77.501 29.583C80.554 29.786 79.593 27.773 80.519 26.809C81.705 26.719 83.379 26.904 83.546 26.253C84.732 26.336 86.401 26.156 86.562 26.809C87.228 26.809 87.903 26.809 88.579 26.809C90.162 26.86 92.07 26.733 91.597 27.916C91.784 28.739 94.031 28.428 95.633 28.472C96.299 28.472 96.969 28.472 97.646 28.472C99.149 28.377 101.36 28.673 101.678 27.916C102.344 27.916 103.015 27.916 103.691 27.916C104.579 28.35 105.963 28.513 107.721 28.472C109.395 28.472 111.075 28.472 112.757 28.472C112.808 28.133 112.908 27.815 113.766 27.916C115.913 27.658 115.679 28.709 115.779 29.583C117.359 29.343 116.637 27.835 119.809 28.472C124.016 28.682 120.906 26.457 119.809 26.254C120.278 25.066 118.363 25.195 116.782 25.143C115.44 25.143 114.099 25.143 112.757 25.143C109.084 26.822 110.665 24.728 104.694 25.143C103.691 25.143 102.682 25.143 101.678 25.143C103.393 23.872 109.365 24.94 112.757 24.587C111.945 22.475 117.52 23.881 119.809 23.478C121.821 23.478 123.836 23.478 125.854 23.478C127.403 22.126 132.812 23.298 133.911 24.032C133.895 24.767 132.146 24.539 131.892 25.143C130.556 25.143 129.203 25.143 127.867 25.143C127.196 25.143 126.52 25.143 125.854 25.143C123.826 24.951 122.696 25.258 122.833 26.254C122.833 26.81 122.833 27.361 122.833 27.916C122.857 28.458 124.065 28.347 124.845 28.472C125.282 27.231 129.807 28.248 131.892 27.916C134.588 29.362 140.781 28.027 143.98 27.916C143.98 28.472 143.98 29.028 143.98 29.583C144.652 29.583 145.328 29.583 145.999 29.583C144.433 27.607 149.416 29.247 149.021 27.916C150.056 26.053 145.889 27.051 143.98 26.809C143.98 26.253 143.98 25.698 143.98 25.142C141.968 25.142 139.955 25.142 137.937 25.142C138.031 24.268 140.511 24.708 139.955 23.477C141.968 23.477 143.98 23.477 146 23.477C148.284 22.976 150.426 22.79 152.043 23.477C155.966 23.163 155.574 25.232 158.088 25.698C156.583 26.351 155.241 27.089 154.056 27.916C152.475 27.679 153.197 26.17 150.025 26.809C150.025 27.178 150.025 27.547 150.025 27.916C150.119 28.795 152.595 28.354 152.043 29.583C153.599 27.512 159.642 27.946 162.113 29.583C161.302 26.283 167.029 29.456 171.18 28.472C172.76 28.525 174.676 28.398 174.201 29.583C177.453 27.766 181.561 28.739 185.285 29.583C188.016 26.253 194.201 31.561 197.374 28.472C197.977 29.916 196.969 30.471 194.347 30.139C193.681 30.139 193.011 30.139 192.334 30.139C191.331 30.139 190.322 30.139 189.312 30.139C177.233 31.419 170.774 28.956 161.104 31.245C156.843 29.433 153.499 30.355 149.021 31.801C147.283 31.275 147.365 29.751 143.98 30.139C141.635 30.139 139.284 30.139 136.933 30.139C137.057 31.135 135.934 31.437 133.911 31.245C132.001 31.001 127.835 32.002 128.876 30.139C128.537 30.139 128.199 30.139 127.867 30.139C127.186 33.07 126.051 29.217 122.833 30.139C120.813 30.139 118.801 30.139 116.783 30.139C118.073 32.313 114.027 31.997 112.758 31.245C112.174 32.221 113.974 34.508 111.749 34.577C109.131 34.353 108.835 32.847 107.722 31.801C108.908 31.716 110.577 31.896 110.738 31.245C109.959 31.123 109.568 30.781 109.735 30.139C109.059 30.139 108.388 30.139 107.723 30.139C106.849 33.144 104.701 29.405 101.68 30.139C100.087 30.185 100.889 31.555 98.652 31.245C99.609 29.239 94.688 30.473 92.609 30.139C87.23 29.023 90.205 32.514 85.555 31.801C81.321 30.948 85.399 34.674 82.539 34.577C83.184 32.183 78.409 32.776 79.512 30.138C78.841 30.138 78.171 30.138 77.503 30.138C73.134 30.138 68.771 30.138 64.406 30.138C62.726 30.138 61.046 30.138 59.372 30.138C59.413 30.899 58.892 31.353 58.363 31.8C58.275 32.591 58.197 33.373 59.372 33.467C63.845 32.708 62.681 35.616 59.372 35.129C59.413 35.897 58.892 36.349 58.363 36.796C59.944 36.847 61.852 36.722 61.379 37.905C56.812 36.868 60.005 40.11 56.345 39.572C57.177 38.002 54.924 38.131 55.335 36.796C51.675 36.254 54.878 39.501 50.301 38.461C50.301 39.017 50.301 39.572 50.301 40.128C51.639 40.016 52.08 40.397 52.545 40.768C50.192 40.856 48.099 41.297 48.388 42.093C47.943 42.058 47.578 42.067 47.284 42.116C47.284 42.008 47.284 41.901 47.284 41.792C46.94 41.792 46.608 41.792 46.275 41.792C44.594 41.792 42.914 41.792 41.228 41.792C41.228 41.236 41.228 40.685 41.228 40.129C43.917 40.129 46.608 40.129 49.291 40.129C50.171 38.349 47.74 38.39 46.275 37.906C46.176 38.78 46.41 39.829 44.256 39.573C44.256 39.017 44.256 38.462 44.256 37.906C43.472 37.784 43.091 37.442 43.247 36.797C39.866 36.23 41.682 38.522 41.229 39.573C40.897 39.573 40.564 39.573 40.231 39.573C40.231 39.386 40.231 39.204 40.231 39.017C40.398 37.814 36.657 38.766 35.186 38.461C34.853 37.345 35.393 36.727 37.204 36.796C34.113 34.421 35.186 38.959 31.159 37.905C31.711 36.673 29.235 37.114 29.141 36.24C32.492 36.418 32.949 35.009 35.186 34.575C34.186 34.575 33.177 34.575 32.168 34.575C32.168 33.466 32.168 32.354 32.168 31.243C31.159 31.243 30.15 31.243 29.141 31.243C27.805 31.243 26.463 31.243 25.116 31.243C24.107 31.243 23.098 31.243 22.098 31.243C21.422 31.243 20.751 31.243 20.08 31.243C19.296 31.121 18.905 30.779 19.071 30.137C16.846 29.828 17.641 31.197 16.049 31.243C16.023 31.785 14.817 31.675 14.037 31.799C14.037 32.91 14.037 34.022 14.037 35.129C14.708 35.129 15.378 35.129 16.049 35.129C16.138 34.253 15.566 33.013 17.053 32.911C17.729 32.911 18.405 32.911 19.071 32.911C19.071 33.093 19.071 33.28 19.071 33.467C20.029 34.396 22.795 35.408 22.098 32.911C23.098 32.911 24.107 32.911 25.116 32.911C25.651 33.359 26.166 33.813 26.125 34.576C24.96 35.399 24.96 35.974 26.125 36.797C26.592 37.98 24.689 37.855 23.098 37.906C22.296 38.201 21.464 38.485 20.08 38.462C19.551 38.014 19.03 37.56 19.071 36.797C16.419 36.137 16.47 39.465 16.049 36.797C15.046 36.797 14.037 36.797 13.028 36.797C13.911 38.722 11.478 38.702 10.005 37.906C10.005 38.093 10.005 38.277 10.005 38.462C10.005 38.831 10.005 39.204 10.005 39.573C9.001 39.573 7.99196 39.573 6.98296 39.573C6.98296 40.311 6.98296 41.053 6.98296 41.791C8.32496 41.791 9.672 41.791 11.01 41.791C11.01 42.347 11.01 42.903 11.01 43.458C12.809 43.79 15.202 41.832 16.049 43.458C18.593 42.407 15.118 41.51 17.053 40.128C20.138 40.53 20.018 39.169 23.098 39.572C23.098 39.756 23.098 39.941 23.098 40.128C24.783 40.128 26.458 40.128 28.143 40.128C29.141 40.128 30.151 40.128 31.159 40.128C33.177 40.128 35.186 40.128 37.204 40.128C37.204 40.684 37.204 41.235 37.204 41.791C37.547 41.791 37.875 41.791 38.213 41.791C37.494 43.588 41.806 42.617 41.35 44.263C40.257 44.42 39.915 44.992 40.326 45.978C39.317 45.978 38.308 45.978 37.31 45.978C36.52 46.1 36.134 46.444 36.301 47.089C33.872 46.858 34.117 48.103 31.262 47.642C30.092 47.737 30.175 48.518 30.258 49.309C29.582 49.309 28.914 49.309 28.238 49.309C28.238 50.789 28.238 52.27 28.238 53.75C27.61 54.052 27.608 54.701 27.17 55.111C26.821 55.111 26.474 55.111 26.125 55.111C25.999 55.245 25.874 55.36 25.749 55.464C25.587 55.455 25.413 55.44 25.216 55.412C24.974 55.616 24.738 55.823 24.553 56.058C23.263 56.315 21.906 55.5 20.08 55.11C19.852 55.544 20.05 56.208 19.071 56.222C19.071 56.693 19.071 57.164 19.071 57.635C18.386 57.635 17.7 57.635 17.014 57.635C17.428 57.012 16.336 55.561 19.071 56.222C19.071 55.666 19.071 55.11 19.071 54.56C16.664 54.894 14.483 55.355 11.01 55.111C10.957 54.777 10.863 54.454 10.005 54.56C9.481 55.088 5.486 56.398 7.992 56.778C7.992 56.591 7.992 56.409 7.992 56.222C10.5 55.5 12.175 57.853 13.028 56.222C14.077 56.306 14.128 56.94 14.064 57.635C13.752 57.635 13.44 57.635 13.128 57.635C12.9 56.927 10.123 56.906 10.107 57.635C10.242 58.631 9.10898 58.933 7.08398 58.742C7.08398 58.929 7.08398 59.113 7.08398 59.298C5.98598 60.545 2.24297 60.329 3.05297 62.63C3.05297 62.714 3.05297 62.799 3.05297 62.884C3.02097 62.884 2.99 62.884 2.958 62.884C0.944 62.947 2.22002 64.82 2.05102 65.9C-0.118982 66.019 1.58197 68.273 1.03997 69.29C1.03997 69.659 1.03997 70.033 1.03997 70.401C1.10397 70.401 1.16597 70.401 1.22997 70.401C0.213973 71.226 1.81297 73.208 3.96197 72.874C4.62797 72.874 5.29801 72.874 5.96801 72.874C5.93801 73.778 6.25301 74.49 8.00701 74.409C8.00201 74.453 7.99697 74.497 7.99297 74.541C5.79797 75.701 8.49797 76.123 7.99297 77.873C7.99297 78.058 7.99297 78.242 7.99297 78.429C7.66097 78.429 7.327 78.429 6.984 78.429C6.573 79.762 8.82497 79.635 7.99297 81.203C8.66397 81.203 9.33497 81.203 10.006 81.203C10.343 81.203 10.682 81.203 11.011 81.203C10.958 81.911 9.71997 81.971 10.006 82.866C6.97897 82.308 8.22097 84.105 7.99297 85.089C9.00197 85.089 10.006 85.089 11.011 85.089C12.243 85.151 13.403 85.255 13.029 86.198C11.223 86.126 10.677 86.749 11.011 87.863C10.682 87.863 10.344 87.863 10.006 87.863C8.62297 87.84 7.797 88.126 6.984 88.419C6.984 88.975 6.984 89.53 6.984 90.084C3.598 89.514 5.419 91.811 4.966 92.862C5.642 92.862 6.318 92.862 6.984 92.862C7.598 92.892 8.17997 92.943 7.99297 93.413C4.57097 94.119 4.706 96.784 4.966 99.521C4.966 100.259 4.966 101.002 4.966 101.742C5.975 101.742 6.98397 101.742 7.99297 101.742C8.10797 102.418 8.29597 103.057 10.006 102.851C9.91697 103.725 7.44297 103.285 7.99297 104.516C7.99297 105.072 7.99297 105.627 7.99297 106.183C7.99297 106.365 7.99297 106.552 7.99297 106.739C7.66097 106.739 7.327 106.739 6.984 106.739C7.161 108.309 3.582 107.818 4.966 110.069C5.642 110.069 6.318 110.069 6.984 110.069C6.292 112.302 7.95297 113.238 7.99297 115.064C7.32697 115.064 6.65197 115.064 5.97497 115.064C3.31297 115.862 5.44397 118.638 7.99297 118.394C7.99297 118.763 7.99297 119.137 7.99297 119.505C6.70197 119.535 6.6 120.215 4.966 120.061C4.966 120.986 4.966 121.91 4.966 122.835C6.651 122.835 8.32597 122.835 10.006 122.835C10.006 123.022 10.006 123.204 10.006 123.391C11.599 123.442 10.802 124.807 13.029 124.498C12.622 125.573 8.41997 124.551 10.006 126.721C13.029 126.721 16.05 126.721 19.072 126.721C20.722 126.472 20.722 129.747 19.072 129.497C20.316 127.954 15.817 127.954 17.054 129.497C16.05 129.497 15.047 129.497 14.038 129.497C13.101 130.09 10.319 129.67 11.011 131.162C11.041 131.702 12.248 131.593 13.029 131.715C14.371 131.715 15.718 131.715 17.054 131.715C17.054 132.088 17.054 132.458 17.054 132.826C19.718 133.486 19.654 130.156 20.081 132.826C19.051 134.978 13.34 131.106 14.038 133.937C14.038 134.119 14.038 134.306 14.038 134.493C15.717 134.493 17.397 134.493 19.072 134.493C20.379 136.688 15.758 135.625 17.054 137.823C16.726 137.823 16.389 137.823 16.05 137.823C16.93 138.632 16.856 139.972 20.081 139.486C20.752 139.486 21.423 139.486 22.099 139.486C22.432 139.486 22.77 139.486 23.099 139.486C23.109 139.403 23.115 139.319 23.121 139.234C24.492 139.234 25.863 139.234 27.23 139.234C28.499 139.368 28.25 140.336 27.23 140.343C25.556 140.343 23.876 140.343 22.196 140.343C22.419 140.774 23.039 140.989 24.214 140.899C24.962 142.608 20.739 141.575 22.196 143.675C23.205 143.675 24.214 143.675 25.217 143.675C25.217 144.231 25.217 144.782 25.217 145.338C25.217 146.636 25.217 147.93 25.217 149.224C25.217 149.593 25.217 149.967 25.217 150.336C25.217 151.445 25.217 152.557 25.217 153.668C24.93 155.358 25.384 157.454 22.196 157.554C21.306 157.049 22.03 155.914 21.187 154.222C21.187 154.037 21.187 153.85 21.187 153.668C21.941 150.377 18.139 151.251 21.187 149.224C20.522 149.224 19.851 149.224 19.175 149.224C19.648 150.412 17.734 150.282 16.152 150.336C16.152 151.076 16.152 151.816 16.152 152.557C16.267 153.233 16.455 153.871 18.17 153.668C18.17 153.85 18.17 154.037 18.17 154.222C16.017 153.961 16.246 155.015 16.152 155.887C16.568 157.225 14.316 157.093 15.143 158.661C15.486 158.661 15.819 158.661 16.152 158.661C16.152 158.848 16.152 159.034 16.152 159.216C16.439 160.116 15.207 160.171 15.143 160.883C12.001 160.087 12.001 165.011 15.143 164.213C15.486 164.213 15.819 164.213 16.152 164.213C16.152 164.582 16.152 164.953 16.152 165.322C16.152 167.727 16.152 170.132 16.152 172.538C16.828 172.538 17.494 172.538 18.17 172.538C18.17 176.242 18.17 179.942 18.17 183.641C19.326 184.298 19.31 185.603 19.175 186.971C20.989 187.043 21.536 186.422 21.187 185.309C21.187 184.753 21.187 184.197 21.187 183.642C21.187 183.273 21.187 182.904 21.187 182.535C22.872 181.613 21.987 179.274 22.196 177.536C24.104 177.785 28.266 176.782 27.23 178.648C26.809 179.808 27.922 180.117 28.239 180.868C29.072 182.436 26.825 182.305 27.23 183.642C28.832 183.69 31.08 183.375 31.262 184.197C32.266 184.197 33.274 184.197 34.283 184.197C36.312 184.008 37.441 184.312 37.31 185.309C38.308 185.309 39.317 185.309 40.326 185.309C40.998 185.309 41.669 185.309 42.345 185.309C42.345 185.491 42.345 185.678 42.345 185.864C45.423 186.263 45.31 184.905 48.388 185.309C49.236 185.827 54.806 186.494 55.442 185.309C58.823 185.878 57.012 183.582 57.45 182.535C58.314 183.536 60.05 184.062 60.477 185.309C62.422 184.718 60.716 182.11 63.495 181.979C62.828 181.979 62.152 181.979 61.486 181.979C60.675 182.362 58.725 182.842 58.459 181.979C58.126 181.979 57.793 181.979 57.45 181.979C54.434 181.979 51.407 181.979 48.389 181.979C48.051 181.979 47.719 181.979 47.38 181.979C45.435 182.203 47.297 184.52 43.355 183.642C43.355 183.273 43.355 182.904 43.355 182.535C46.964 183.072 45.695 179.828 42.346 180.868C45.03 180.02 47.313 180.654 52.417 180.313C54.652 180.617 53.852 179.252 55.443 179.202C57.419 179.036 57.44 179.954 58.459 180.313C58.625 179.669 58.241 179.326 57.45 179.202C60.155 178.349 62.755 178.805 66.522 179.202C66.645 175.219 67.52 181.03 70.547 178.648C72.285 178.429 73.128 179.471 73.574 178.648C74.241 178.648 74.917 178.648 75.583 178.648C75.926 178.648 76.259 178.648 76.592 178.648C79.077 178.574 81.449 178.565 82.635 179.202C83.625 177.945 87.682 180.156 87.682 177.537C88.846 177.634 88.763 178.416 88.68 179.202C90.073 179.229 90.896 178.941 91.707 178.648C95.166 178.406 97.35 178.865 99.77 179.202C99.442 177.73 105.408 179.723 103.795 177.537C105.512 177.334 105.694 177.971 105.813 178.649C108.882 178.245 109.481 179.216 111.858 179.203C111.858 179.574 111.858 179.945 111.858 180.314C114.874 180.314 117.901 180.314 120.919 180.314C121.703 180.192 122.094 179.848 121.928 179.203C124.123 179.304 125.132 178.748 124.95 177.538C128.049 177.123 126.173 179.454 129.989 178.65C131.269 178.682 131.384 179.363 133.007 179.204C132.862 178.127 138.624 180.565 137.037 177.539C143.004 179.57 152.632 179.291 158.192 178.095C158.495 176.635 154.285 177.659 155.171 175.874C155.171 175.69 155.171 175.503 155.171 175.321C154.162 175.321 153.158 175.321 152.149 175.321C151.806 174.207 152.356 173.582 154.162 173.654C155.337 173.564 155.259 172.778 155.171 171.991C155.841 171.991 156.507 171.991 157.183 171.991C156.684 170.243 159.378 169.819 157.183 168.659C156.507 168.659 155.841 168.659 155.171 168.659C155.378 170.252 154.916 171.479 153.158 171.991C151.79 171.818 152.316 170.598 152.149 169.768C150.988 167.972 151.004 171.258 151.139 171.991C149.413 172.701 148.404 173.813 148.117 175.321C147.779 175.321 147.446 175.321 147.114 175.321C144.513 174.728 146.564 172.123 148.117 171.991C146.094 172.178 144.965 171.876 145.096 170.88C142.662 171.392 140.986 172.317 140.06 173.654C139.743 174.549 138.624 173.615 139.051 172.543C135.613 172.128 137.771 174.8 134.017 174.21C134.017 173.655 134.017 173.099 134.017 172.543C132.426 172.594 133.226 173.959 130.995 173.654C130.995 174.397 130.995 175.135 130.995 175.875C128.701 176.281 123.136 174.874 123.947 176.984C122.23 177.189 122.042 176.55 121.929 175.875C122.584 175.312 124.243 175.301 123.947 174.21C122.511 174.259 121.092 174.302 120.92 173.655C120.92 173.099 120.92 172.544 120.92 171.992C120.25 171.992 119.578 171.992 118.908 171.992C117.138 172.31 112.987 171.321 112.863 172.543C114.443 172.598 116.354 172.471 115.884 173.654C113.761 174.888 110.298 172.669 109.841 175.321C111.515 175.321 113.195 175.321 114.875 175.321C115.489 175.351 116.066 175.401 115.884 175.874C117.226 177.703 106.975 174.004 105.814 176.983C102.704 177.4 104.582 175.069 100.769 175.874C99.905 178.881 97.753 175.145 94.724 175.874C96.207 177.493 90.226 177.493 91.708 175.874C90.731 176.815 88.92 177.299 85.665 176.983C81.222 177.767 82.934 175.159 82.637 173.653C80.463 174.903 79.205 173.192 75.585 173.653C73.39 173.551 72.381 174.107 72.567 175.32C74.919 175.32 77.265 175.32 79.621 175.32C79.309 176.072 77.099 175.781 75.585 175.873C72.733 175.781 73.629 177.752 69.54 176.982C69.54 176.613 69.54 176.244 69.54 175.873C67.532 175.873 65.515 175.873 63.497 175.873C62.019 178.559 58.322 174.287 55.445 176.982C53.256 177.079 54.987 175.015 54.436 174.207C56.017 174.444 55.3 175.953 58.461 175.319C58.461 174.394 58.461 173.465 58.461 172.54C57.509 174.057 54.737 175.104 55.445 171.989C53.948 172.628 52.907 172.628 51.409 171.989C52.199 172.48 52.491 173.241 52.418 174.207C52.085 174.207 51.751 174.207 51.409 174.207C48.88 173.158 46.009 175.462 46.373 172.54C47.548 172.632 48.174 172.418 48.391 171.989C48.391 171.615 48.391 171.246 48.391 170.878C45.286 170.46 47.164 172.792 43.357 171.989C43.019 171.989 42.681 171.989 42.348 171.989C42.348 171.06 42.348 170.135 42.348 169.21C42.27 168.244 42.566 167.485 43.357 166.992C41.77 166.937 39.862 167.066 40.329 165.88C42.899 165.815 45.515 165.774 45.365 164.215C46.374 164.215 47.383 164.215 48.392 164.215C49.401 164.215 50.4 164.215 51.41 164.215C52.918 164.121 55.135 164.413 55.446 163.659C55.216 163.23 55.414 162.566 54.437 162.547C53.429 162.547 52.42 162.547 51.41 162.547C48.725 162.547 46.042 162.547 43.358 162.547C43.785 161.678 46.519 162.075 45.366 160.329C48.597 161.396 50.454 160.001 54.438 160.884C56.445 160.884 58.463 160.884 60.481 160.884C61.49 160.884 62.499 160.884 63.499 160.884C64.112 160.849 64.694 160.799 64.508 160.329C72.679 159.621 77.552 162.406 81.631 159.217C81.596 160.278 89.152 161.426 88.685 159.217C89.362 159.217 90.032 159.217 90.703 159.217C91.661 159.51 94.047 161.708 94.728 160.329C98.369 161.23 99.608 160.234 102.791 160.884C105.622 159.563 109.62 161.419 112.867 160.329C112.867 160.516 112.867 160.698 112.867 160.884C117.668 160.453 117.335 160.644 121.933 160.329C121.933 159.96 121.933 159.586 121.933 159.217C118.105 158.92 119.102 158.685 115.888 157.555C115.711 155.975 122.478 158.226 120.924 155.888C121.257 155.888 121.589 155.888 121.933 155.888C120.798 158.365 129.256 155.549 126.967 158.662C126.229 159.651 125.136 158.743 123.951 158.662C122.483 161.318 128.158 160.045 130.999 160.329C132.897 160.082 137.069 161.085 136.033 159.217C137.614 159.457 136.891 160.965 140.064 160.329C141.74 160.329 143.42 160.329 145.1 160.329C149.782 160.003 151.186 161.088 154.167 160.329C155.176 160.329 156.185 160.329 157.188 160.329C157.521 160.329 157.864 160.329 158.197 160.329C159.871 160.329 161.551 160.329 163.233 160.329C164.575 160.329 165.916 160.329 167.264 160.329C167.264 160.516 167.264 160.698 167.264 160.884C168.943 160.884 170.618 160.884 172.298 160.884C173.24 160.291 176.012 160.711 175.321 159.217C174.54 159.095 173.333 159.203 173.307 158.662C174.318 158.662 175.321 158.662 176.33 158.662C175.772 157.433 178.254 157.873 178.342 156.999C179.128 156.877 179.517 156.535 179.351 155.888C181.063 155.685 181.251 156.322 181.364 156.999C181.364 157.186 181.364 157.368 181.364 157.555C181.656 159.058 182.66 160.17 184.385 160.885C184.724 160.885 185.057 160.885 185.396 160.885C184.194 158.551 184.044 157.352 188.417 156.999C190.32 157.188 193.046 154.218 193.451 156.999C193.858 158.33 188.864 156.69 190.429 158.662C190.429 158.849 190.429 159.035 190.429 159.217C191.215 159.339 191.599 159.681 191.438 160.329C192.442 160.329 193.451 160.329 194.46 160.329C195.131 160.329 195.801 160.329 196.474 160.329C197.483 160.329 198.486 160.329 199.495 160.329C201.507 160.329 203.525 160.329 205.538 160.329C205.538 159.96 205.538 159.586 205.538 159.217C205.538 159.035 205.538 158.848 205.538 158.662C203.042 157.94 201.357 160.292 200.504 158.662C200.504 158.293 200.504 157.924 200.504 157.555C198.486 157.555 196.474 157.555 194.459 157.555C194.62 156.905 196.291 157.084 197.482 156.999C199.192 157.202 199.379 156.566 199.494 155.888C200.513 156.25 200.535 157.166 202.515 156.999C202.515 156.63 202.515 156.257 202.515 155.888C203.499 155.904 203.296 156.568 203.524 156.999C206.379 157.094 205.491 155.122 209.564 155.888C210.24 155.888 210.916 155.888 211.582 155.888C214.646 156.421 221.797 154.698 221.652 156.999C220.997 159.399 217.366 158.51 215.607 159.217C215.306 160.681 217.713 160.652 219.644 160.884C221.412 160.748 221.937 159.929 221.651 158.661C222.66 158.661 223.669 158.661 224.677 158.661C225.348 158.661 226.019 158.661 226.69 158.661C228.412 158.891 226.478 159.38 226.69 160.328C229.046 160.328 231.393 160.328 233.738 160.328C235.721 160.494 235.741 159.578 236.765 159.216C236.88 159.894 237.068 160.531 238.782 160.328C238.683 159.454 238.908 158.404 236.765 158.661C236.859 157.792 236.63 156.738 238.782 156.998C238.492 156.099 239.73 156.041 239.782 155.331C242.621 155.439 242.694 152.935 242.809 155.887C242.809 156.256 242.809 156.63 242.809 156.998C247.735 155.635 252.514 154.727 256.915 156.998C257.934 156.636 257.956 155.72 259.931 155.887C259.891 156.653 260.406 157.107 260.94 157.554C257.715 157.069 257.795 158.407 256.915 159.216C259.177 161.405 261.388 160.171 266.985 160.328C266.985 159.959 266.985 159.585 266.985 159.216C267.152 158.566 268.826 158.748 270.012 158.661C269.045 156.279 270.72 155.354 275.048 155.887C275.381 155.887 275.714 155.887 276.057 155.887C276.723 155.887 277.393 155.887 278.064 155.887C276.451 158.073 282.416 156.081 282.1 157.554C282.1 158.11 282.1 158.661 282.1 159.216C282.1 159.585 282.1 159.959 282.1 160.328C285.902 161.13 284.024 158.804 287.136 159.216C285.892 161.75 293.939 159.165 294.188 160.883C295.355 160.971 295.978 160.761 296.197 160.328C299.265 160.487 303.072 160.24 303.249 161.99C305.267 161.99 307.285 161.99 309.294 161.99C308.957 160.881 309.501 160.256 311.312 160.328C312.981 160.941 312.066 163.849 315.337 161.99C315.337 162.546 315.337 163.102 315.337 163.657C315.337 164.397 315.337 165.137 315.337 165.878C311.962 165.892 308.623 165.878 309.294 163.657C307.805 164.3 306.756 164.3 305.267 163.657C305.267 164.213 305.267 164.769 305.267 165.322C306.276 165.322 307.285 165.322 308.285 165.322C308.124 165.972 306.453 165.793 305.267 165.878C304.259 165.878 303.249 165.878 302.24 165.878C300.223 165.691 299.093 165.993 299.224 166.99C297.544 166.99 295.864 166.99 294.188 166.99C293.648 167.437 293.139 167.889 293.179 168.655C295.812 168.496 297.512 168.855 297.206 170.32C298.881 170.32 300.566 170.32 302.24 170.32C301.169 171.395 296.447 170.452 296.197 171.987C296.571 171.042 295.417 170.936 294.188 170.876C294.188 171.801 294.188 172.725 294.188 173.65C290.101 174.416 291 172.444 288.145 172.539C288.145 172.912 288.145 173.281 288.145 173.65C287.198 174.243 284.421 173.823 285.119 175.317C286.579 175.012 290.325 175.965 290.153 174.761C290.153 174.574 290.153 174.392 290.153 174.205C294.143 173.488 292.214 176.031 296.198 175.317C296.537 175.317 296.874 175.317 297.207 175.317C302.127 175.492 296.234 176.191 294.189 175.87C294.189 176.797 294.189 177.722 294.189 178.646C295.614 178.6 297.041 178.556 297.207 179.2C297.207 179.571 297.207 179.942 297.207 180.311C296.395 180.606 295.573 180.89 294.189 180.866C293.494 182.36 296.266 181.938 297.207 182.533C297.207 182.902 297.207 183.271 297.207 183.64C295.718 184.283 294.669 184.283 293.18 183.64C293.18 184.383 293.18 185.12 293.18 185.863C294.522 185.863 295.865 185.863 297.207 185.863C299.231 185.674 300.358 185.974 300.234 186.97C303.897 187.512 300.691 184.268 305.268 185.308C307.286 185.308 309.295 185.308 311.313 185.308C313.352 185.22 316.524 188.783 317.356 185.863C317.69 185.863 318.023 185.863 318.366 185.863C318.366 186.414 318.366 186.97 318.366 187.526C320.04 187.526 321.715 187.526 323.4 187.526C323.4 187.339 323.4 187.157 323.4 186.97C326.521 186.239 328.987 188.617 330.454 186.97C330.09 184.051 332.95 186.354 335.488 185.308C335.322 184.66 335.706 184.319 336.492 184.196C338.193 182.91 340.2 181.8 342.537 180.866C344.252 180.516 344.196 179.187 345.564 178.646C345.564 178.275 345.564 177.906 345.564 177.534C348.644 177.938 348.524 176.577 351.609 176.978C352.487 175.198 348.991 175.827 348.58 174.759C349.32 174.24 350.418 173.92 351.609 173.648C351.832 174.081 352.446 174.296 353.622 174.203C353.918 175.294 352.259 175.306 351.609 175.868C355.921 176.744 357.049 177.226 360.669 177.533C362.099 177.581 363.526 177.625 363.692 176.977C363.663 176.905 363.646 176.839 363.635 176.777C363.634 176.77 363.633 176.763 363.632 176.756C363.623 176.697 363.621 176.641 363.627 176.59C363.489 176.435 363.213 176.317 362.853 176.225C362.852 176.225 362.851 176.225 362.85 176.224C362.779 176.206 362.705 176.189 362.629 176.172C362.627 176.172 362.625 176.171 362.623 176.171C362.128 176.067 361.518 176 360.908 175.95C359.869 175.864 358.831 175.826 358.356 175.731C358.349 175.73 358.344 175.728 358.337 175.727C358.299 175.719 358.264 175.711 358.234 175.702C358.223 175.699 358.215 175.695 358.205 175.692C358.183 175.684 358.163 175.677 358.147 175.668C358.139 175.664 358.133 175.659 358.126 175.654C358.115 175.646 358.105 175.638 358.1 175.629C358.096 175.624 358.094 175.618 358.093 175.612C358.091 175.603 358.092 175.594 358.095 175.585C358.097 175.579 358.1 175.572 358.105 175.566C358.112 175.556 358.123 175.546 358.136 175.535C358.145 175.528 358.153 175.521 358.165 175.513C358.182 175.502 358.205 175.49 358.229 175.477C358.244 175.469 358.257 175.462 358.274 175.454C358.305 175.44 358.344 175.425 358.384 175.409C358.402 175.402 358.417 175.396 358.437 175.388C358.501 175.365 358.573 175.34 358.657 175.314C362.038 175.884 360.229 173.587 360.67 172.535C361.845 172.627 362.465 172.413 362.689 171.984C363.5 172.274 364.327 172.561 365.705 172.535C366.896 171.898 369.268 171.908 371.748 171.984C372.086 171.984 372.424 171.984 372.757 171.984C374.782 172.171 375.915 171.869 375.78 170.873C371.628 171.814 371.628 168.265 375.78 169.206C375.404 170.151 376.569 170.253 377.792 170.317C377.792 169.948 377.792 169.579 377.792 169.206C377.792 169.024 377.792 168.837 377.792 168.653C381.876 169.421 380.98 167.447 383.835 167.544C384.98 167.438 384.393 166.984 383.835 166.989C384.996 165.243 382.26 165.64 381.823 164.768C382.813 162.928 383.821 165.388 384.846 165.321C385.522 165.321 386.193 165.321 386.858 165.321C389.053 166.963 394.463 163.963 396.934 165.877C396.934 166.802 396.934 167.726 396.934 168.653C399.362 168.425 399.129 169.668 401.973 169.206C401.973 170.317 401.973 171.429 401.973 172.536C398.166 171.734 400.038 174.065 396.934 173.647C395.939 173.031 392.606 170.924 390.889 172.536C392.33 173.779 392.314 175.822 396.934 175.315C395.981 173.308 400.903 174.54 402.977 174.203C404.834 174.291 411.169 172.854 405.999 172.536C406.224 172.107 406.843 171.892 408.018 171.985C410.431 171.764 407.456 174.512 411.034 173.648C413.385 173.648 415.741 173.648 418.088 173.648C418.088 174.203 418.088 174.759 418.088 175.315C417.079 175.315 416.068 175.315 415.07 175.315C414.769 176.443 413.047 176.793 412.043 177.533C414.061 177.533 416.068 177.533 418.088 177.533C418.263 176.887 419.679 176.931 421.114 176.977C420.886 176.548 421.082 175.884 420.105 175.868C420.272 175.222 421.697 175.266 423.121 175.315C424.296 175.22 424.219 174.439 424.13 173.648C425.525 173.625 426.346 173.908 427.157 174.203C425.691 176.302 429.926 175.266 429.166 176.978C430.175 176.978 431.184 176.978 432.193 176.978C430.862 175.675 429.384 174.455 430.175 171.985C431.568 171.957 432.39 172.245 433.202 172.536C433.312 173.214 433.503 173.85 435.21 173.647C436.801 173.596 436.007 172.231 438.237 172.536C438.57 172.536 438.907 172.536 439.246 172.536C439.074 171.892 437.654 171.934 436.219 171.985C435.21 171.985 434.201 171.985 433.203 171.985C433.244 171.219 432.725 170.765 432.194 170.318C432.079 169.64 431.891 169.004 430.176 169.207C429.645 168.764 429.125 168.306 429.167 167.544C427.491 167.544 425.811 167.544 424.131 167.544C423.642 165.965 420.978 165.577 418.088 165.321C418.566 164.138 416.652 164.263 415.07 164.212C415.07 163.656 415.07 163.101 415.07 162.545C414.061 162.545 413.052 162.545 412.043 162.545C411.992 162.206 411.898 161.888 411.034 161.989C408.195 161.533 408.434 162.773 405.998 162.545C405.952 160.484 409.4 160.35 408.017 157.553C407.008 157.553 405.998 157.553 404.989 157.553C404.324 157.553 403.653 157.553 402.976 157.553C402.96 155.895 403.075 154.168 399.955 154.221C401.026 152.962 406.29 154.009 409.022 153.667C410.707 153.667 412.387 153.667 414.061 153.667C413.178 151.884 416.672 152.514 417.079 151.444C417.635 150.212 415.153 150.653 415.07 149.779C415.097 149.242 416.298 149.35 417.079 149.223C417.079 149.039 417.079 148.854 417.079 148.667C420.439 148.667 423.799 148.667 427.158 148.667C429.167 148.667 431.185 148.667 433.203 148.667C433.203 148.854 433.203 149.038 433.203 149.223C437.105 149.668 439.856 150.738 442.264 151.999C442.935 151.999 443.611 151.999 444.282 151.999C444.282 153.11 444.282 154.22 444.282 155.329C446.3 155.329 448.307 155.329 450.325 155.329C449.342 155.899 448.334 156.454 447.298 156.996C445.915 156.973 445.093 157.257 444.282 157.552C444.282 159.032 444.282 160.513 444.282 161.988C445.868 161.942 445.073 160.577 447.298 160.881C447.298 161.25 447.298 161.619 447.298 161.988C448.245 162.583 451.022 162.161 450.325 163.655C451.335 163.655 452.345 163.655 453.343 163.655C454.154 163.95 454.98 164.236 456.37 164.211C459.96 164.822 462.842 165.825 468.458 165.32C466.898 163.653 474.055 163.653 472.485 165.32C472.343 165.978 470.695 166.579 472.485 166.987C472.485 167.171 472.485 167.356 472.485 167.542C475.547 167.337 474.581 169.35 475.512 170.316C478.33 170.953 480.75 170.953 483.573 170.316C483.573 170.872 483.573 171.427 483.573 171.983C480.884 171.983 478.195 171.983 475.512 171.983C475.169 171.983 474.841 171.983 474.503 171.983C474.477 170.516 475.44 168.503 471.485 169.204C470.975 170.952 473.68 171.377 471.485 172.534C471.704 172.967 471.506 173.631 472.485 173.645C464.962 174.807 471.423 175.75 477.53 175.312C477.53 174.756 477.53 174.2 477.53 173.645C478.706 173.737 478.373 174.657 478.529 175.312C479.538 175.312 480.547 175.312 481.556 175.312C483.71 175.051 483.471 176.105 483.574 176.975C483.903 176.975 484.241 176.975 484.574 176.975C485.25 176.975 485.921 176.975 486.592 176.975C489.817 177.461 489.743 176.122 490.623 175.312C490.284 175.312 489.946 175.312 489.619 175.312C490.915 173.114 486.294 174.177 487.601 171.982C489.275 171.982 490.955 171.982 492.635 171.982C492.635 171.795 492.635 171.608 492.635 171.426C493.333 168.595 487.622 172.466 486.592 170.315C487.019 167.645 486.955 170.975 489.619 170.315C489.619 169.946 489.619 169.577 489.619 169.204C490.955 169.204 492.302 169.204 493.644 169.204C494.425 169.082 495.632 169.19 495.662 168.651C496.354 167.159 493.571 167.579 492.635 166.986C491.627 166.986 490.623 166.986 489.619 166.986C490.856 165.443 486.357 165.443 487.601 166.986C485.951 167.235 485.951 163.96 487.601 164.21C490.623 164.21 493.644 164.21 496.667 164.21C498.253 162.041 494.051 163.062 493.644 161.987C495.871 162.296 495.074 160.931 496.667 160.88C496.667 160.693 496.667 160.511 496.667 160.325C498.347 160.325 500.021 160.325 501.707 160.325C501.707 159.4 501.707 158.476 501.707 157.551C500.073 157.705 499.971 157.025 498.68 156.995C498.68 156.626 498.68 156.253 498.68 155.884C501.229 156.128 503.36 153.352 500.698 152.554C500.021 152.554 499.346 152.554 498.68 152.554C498.72 150.728 500.381 149.792 499.689 147.559C500.355 147.559 501.031 147.559 501.707 147.559C503.091 145.308 499.512 145.8 499.689 144.229C499.346 144.229 499.012 144.229 498.68 144.229C498.68 144.042 498.68 143.856 498.68 143.673C498.68 143.117 498.68 142.562 498.68 142.006C499.23 140.774 496.756 141.215 496.667 140.341C498.377 140.547 498.565 139.908 498.68 139.232C499.689 139.232 500.698 139.232 501.707 139.232C501.707 138.492 501.707 137.749 501.707 137.011C501.967 134.274 502.102 131.608 498.68 130.902C498.493 130.431 499.075 130.381 499.689 130.351C500.355 130.351 501.031 130.351 501.707 130.351C501.254 129.3 503.075 127.003 499.689 127.573C499.689 127.019 499.689 126.464 499.689 125.908C498.877 125.615 498.05 125.329 496.667 125.352C496.33 125.352 495.991 125.352 495.662 125.352C495.996 124.239 495.45 123.616 493.644 123.687C493.27 122.744 494.43 122.64 495.662 122.578C496.667 122.578 497.671 122.578 498.68 122.578C498.452 121.594 499.694 119.797 496.667 120.355C496.953 119.46 495.715 119.4 495.662 118.692C495.991 118.692 496.329 118.692 496.667 118.692C497.338 118.692 498.009 118.692 498.68 118.692C497.848 117.124 500.1 117.251 499.689 115.918C499.346 115.918 499.012 115.918 498.68 115.918C498.68 115.731 498.68 115.547 498.68 115.362C498.175 113.612 500.875 113.19 498.68 112.03C498.591 111.241 498.513 110.46 499.689 110.363C500.698 110.363 501.707 110.363 502.71 110.363C505.196 110.755 506.965 107.995 504.706 107.591ZM465.426 77.618C465.426 78.174 465.426 78.725 465.426 79.281C465.166 79.281 464.908 79.281 464.649 79.281C464.301 79.126 464.137 78.869 464.31 78.429C464.179 78.112 463.905 77.874 463.663 77.619C464.25 77.618 464.837 77.618 465.426 77.618ZM478.512 55.412C477.513 55.412 476.505 55.412 475.496 55.412C472.988 55.188 474.726 52.871 477.514 53.749C478.678 53.839 478.605 54.626 478.512 55.412ZM477.513 47.088C477.846 47.088 478.179 47.088 478.512 47.088C478.512 47.272 478.512 47.457 478.512 47.641C477.731 47.766 477.347 48.107 477.513 48.752C474.403 49.167 476.279 46.836 472.468 47.641C472.3 46.437 476.046 47.39 477.513 47.088ZM471.468 57.079C474.631 57.713 473.913 56.205 475.495 55.968C475.364 56.964 476.494 57.266 478.511 57.079C478.511 57.261 478.511 57.448 478.511 57.635C477.534 57.649 477.73 58.313 477.512 58.742C475.035 58.255 473.809 57.079 469.449 57.635C469.472 57.093 470.679 57.201 471.468 57.079ZM28.121 9.59601C28.454 9.59601 28.787 9.59601 29.119 9.59601C30.587 9.89801 34.332 8.94599 34.164 10.149C30.353 9.34399 32.229 11.676 29.119 11.26C29.286 10.614 28.901 10.273 28.121 10.149C28.121 9.96399 28.121 9.78001 28.121 9.59601ZM29.12 16.257C31.908 15.379 33.646 17.696 31.138 17.92C30.129 17.92 29.12 17.92 28.122 17.92C28.027 17.134 27.955 16.347 29.12 16.257ZM29.12 21.25C28.902 20.821 29.099 20.157 28.122 20.143C28.122 19.956 28.122 19.77 28.122 19.587C30.14 19.774 31.269 19.472 31.138 18.476C32.72 18.713 32.002 20.221 35.165 19.587C35.955 19.709 37.162 19.601 37.183 20.143C32.823 19.587 31.596 20.763 29.12 21.25ZM50.28 9.59601C53.448 10.23 52.725 8.72199 54.305 8.48499C54.691 9.75599 58.343 9.22499 59.352 10.15C58.343 10.15 57.334 10.15 56.325 10.15C52.247 9.38499 53.141 11.356 50.28 11.261C50.28 10.705 50.28 10.149 50.28 9.59601ZM51.289 20.143C48.907 18.863 47.009 17.321 41.208 17.92C40.991 17.491 41.187 16.827 40.21 16.809C40.693 16.156 41.281 15.552 42.217 15.146C42.592 15.753 46.633 17.466 46.254 15.146C46.587 15.146 46.919 15.146 47.263 15.146C47.685 16.389 49.416 16.915 50.279 17.92C50.15 16.924 51.277 16.622 53.306 16.809C53.472 16.166 54.897 16.209 56.324 16.258C56.324 15.885 56.324 15.516 56.324 15.147C57.333 15.147 58.342 15.147 59.351 15.147C64.718 15.733 59.595 13.978 62.367 13.48C63.376 13.48 64.385 13.48 65.394 13.48C65.394 14.409 65.394 15.334 65.394 16.258C64.385 16.258 63.376 16.258 62.367 16.258C61.358 16.258 60.349 16.258 59.351 16.258C59.293 16.966 58.061 17.026 58.342 17.921C57.671 17.921 56.995 17.921 56.324 17.921C55.314 17.921 54.304 17.921 53.306 17.921C52.962 17.921 52.63 17.921 52.297 17.921C52.121 18.75 52.652 19.97 51.289 20.143ZM61.359 21.806C58.633 21.647 56.615 21.091 55.314 20.143C53.504 20.215 52.963 19.59 53.307 18.476C54.305 18.476 55.314 18.476 56.325 18.476C59.185 18.381 58.29 20.353 62.368 19.587C63.149 19.709 64.356 19.601 64.386 20.143C65.952 22.115 60.964 20.475 61.359 21.806ZM81.51 17.92C80.168 17.92 78.821 17.92 77.483 17.92C77.139 17.92 76.807 17.92 76.474 17.92C76.474 17.551 76.474 17.182 76.474 16.809C75.803 16.809 75.127 16.809 74.456 16.809C74.643 18.022 73.634 18.578 71.44 18.476C71.378 18.137 71.284 17.819 70.431 17.92C69.422 17.92 68.413 17.92 67.404 17.92C67.071 17.92 66.737 17.92 66.395 17.92C65.172 17.86 64.013 17.754 64.386 16.809C68.402 16.507 67.413 16.507 71.44 16.809C71.44 16.627 71.44 16.44 71.44 16.258C71.44 15.702 71.44 15.147 71.44 14.591C73.458 14.78 74.588 14.478 74.456 13.48C74.738 12.029 74.799 10.706 71.44 11.261C69.084 11.261 66.737 11.261 64.386 11.261C64.386 10.89 64.386 10.521 64.386 10.15C66.395 10.15 68.413 10.15 70.431 10.15C71.824 8.88699 77.437 9.94298 80.501 9.59698C79.35 11.343 82.082 10.946 82.519 11.818C80.536 11.652 80.52 12.565 79.492 12.927C79.492 13.481 79.492 14.036 79.492 14.592C82.041 14.346 84.177 17.12 81.51 17.92ZM97.628 17.92C96.952 17.92 96.281 17.92 95.615 17.92C94.179 17.968 92.76 18.012 92.588 17.364C92.218 16.423 93.374 16.317 94.606 16.257C94.938 16.257 95.271 16.257 95.615 16.257C96.261 16.82 97.931 16.829 97.628 17.92ZM99.641 10.149C98.549 10.287 98.956 11.254 97.628 11.26C96.952 11.26 96.281 11.26 95.615 11.26C94.606 11.26 93.597 11.26 92.588 11.26C92.255 11.26 91.917 11.26 91.579 11.26C91.891 8.52801 94.954 10.525 97.627 9.595C100.847 9.671 105.331 9.04601 104.676 11.26C101.462 11.733 100.859 10.774 99.641 10.149ZM106.695 17.92C103.601 18.771 103.601 14.295 106.695 15.146C106.695 16.07 106.695 16.995 106.695 17.92ZM118.783 12.925C115.673 13.34 117.551 11.011 113.749 11.816C113.749 12.925 113.749 14.034 113.749 15.146C111.689 14.98 111.064 14.035 109.717 13.479C109.717 13.297 109.717 13.11 109.717 12.925C108.698 11.256 111.96 11.94 113.749 11.816C113.749 11.26 113.749 10.705 113.749 10.149C115.371 10.308 115.475 9.62601 116.765 9.59601C115.464 11.791 120.085 10.728 118.783 12.925ZM119.792 13.479C121.415 13.638 121.519 12.958 122.815 12.925C122.839 13.465 124.047 13.356 124.827 13.479C124.379 14.528 126.195 16.827 122.815 16.257C122.585 15.826 122.783 15.16 121.804 15.146C121.144 14.579 119.491 14.574 119.792 13.479ZM122.816 17.92C121.541 17.784 121.791 16.816 122.816 16.809C125.505 17.132 129.103 15.17 130.871 16.809C131.486 19.001 125.338 17.463 122.816 17.92ZM452.649 89.55C452.502 89.546 452.358 89.54 452.221 89.53C452.169 89.412 452.143 89.308 452.135 89.214C452.317 89.318 452.489 89.43 452.649 89.55ZM448.288 52.638C448.961 52.638 449.635 52.638 450.308 52.638C450.308 52.752 450.308 52.867 450.308 52.981C449.688 52.905 448.864 52.942 448.195 52.892C448.246 52.818 448.272 52.731 448.288 52.638ZM452.237 47.474C452.114 47.31 452.087 47.093 452.221 46.786C452.221 46.599 452.221 46.417 452.221 46.23C452.221 46.217 452.221 46.203 452.221 46.19C452.268 46.125 452.304 46.054 452.328 45.976C453.908 46.213 453.184 47.722 456.353 47.087C456.353 47.64 456.353 48.196 456.353 48.752C454.069 48.828 454.177 47.588 452.237 47.474ZM457.362 90.384C457.608 90.333 457.921 90.319 458.266 90.323C458.266 90.799 458.266 91.274 458.266 91.75C458.266 92.074 458.266 92.395 458.266 92.717C457.165 92.554 455.774 92.551 454.337 92.572C454.256 91.93 453.987 91.183 454.151 90.675C454.891 91.08 455.8 91.179 457.362 90.384ZM451.319 57.635C451.278 57.665 451.23 57.691 451.188 57.72C451.136 57.183 451.515 56.888 452.222 56.778C452.222 56.591 452.222 56.409 452.222 56.222C451.915 56.174 451.671 56.09 451.496 55.968C452.108 55.968 452.722 55.968 453.328 55.968C453.67 57.082 453.128 57.707 451.319 57.635ZM465.426 55.412C459.625 54.812 457.727 56.355 455.345 57.635C453.982 57.462 454.513 56.242 454.336 55.412C454.003 55.412 453.67 55.412 453.327 55.412C452.619 55.412 451.901 55.412 451.185 55.412C451.181 55.319 451.186 55.221 451.213 55.11C450.155 54.969 449.677 55.148 449.355 55.412C449 55.412 448.645 55.412 448.291 55.412C448.572 54.517 447.34 54.457 447.282 53.749C446.568 53.749 445.845 53.749 445.124 53.749C445.125 53.656 445.135 53.559 445.169 53.448C446.885 53.448 448.599 53.448 450.309 53.448C450.309 53.549 450.309 53.648 450.309 53.749C451.736 53.701 453.161 53.657 453.327 54.3C455.355 54.113 456.483 54.415 456.354 55.411C457.218 54.406 458.949 53.88 459.37 52.637C459.714 52.637 460.046 52.637 460.379 52.637C460 54.957 464.041 53.244 464.416 52.637C465.352 53.043 465.94 53.647 466.423 54.3C465.446 54.319 465.643 54.983 465.426 55.412ZM449.205 37.903C450.879 37.903 452.559 37.903 454.239 37.903C454.355 36.487 454.427 35.046 457.257 35.127C456.242 36.799 459.503 36.114 461.293 36.239C461.293 35.87 461.293 35.499 461.293 35.127C461.959 35.127 462.63 35.127 463.301 35.127C462.874 34.258 460.14 34.655 461.293 32.909C462.968 32.909 464.647 32.909 466.329 32.909C466.646 33.659 467.759 33.97 467.338 35.127C465.881 37.228 470.105 36.195 469.345 37.903C468.871 38.195 467.027 38.924 467.332 39.316C467.029 39.316 466.727 39.316 466.424 39.316C466.091 39.316 465.759 39.316 465.426 39.316C465.426 39.685 465.426 40.054 465.426 40.423C464.634 40.55 463.427 40.442 463.408 40.979C462.399 40.979 461.388 40.979 460.38 40.979C459.437 41.103 458.795 41.06 458.267 40.954C458.267 40.492 458.267 40.031 458.267 39.57C457.934 39.57 457.596 39.57 457.258 39.57C455.287 39.742 454.919 40.008 455.185 40.355C454.929 40.363 454.653 40.381 454.337 40.422C454.337 40.609 454.337 40.796 454.337 40.978C454.004 40.978 453.671 40.978 453.328 40.978C452.655 40.978 451.979 40.978 451.305 40.978C451.409 40.58 451.424 40.137 452.223 40.125C451.816 39.054 447.613 40.078 449.205 37.903ZM449.412 40.979C449.038 40.979 448.664 40.979 448.29 40.979C447.957 40.979 447.624 40.979 447.281 40.979C447.362 40.426 446.61 40.33 445.633 40.357C445.765 40.267 445.943 40.188 446.177 40.126C448.765 39.58 448.733 40.477 449.412 40.979ZM50.28 122.835C50.035 122.807 49.769 122.791 49.495 122.779C49.531 122.569 49.506 122.326 49.376 122.025C49.376 121.659 49.376 121.293 49.376 120.926C49.693 120.792 49.942 120.617 50.106 120.393C50.544 120.375 50.825 120.269 51.009 120.109C54.749 120.447 49.955 121.844 50.28 122.835ZM23.076 134.493C23.076 133.937 23.076 133.382 23.076 132.826C23.791 132.987 24.48 133.107 25.156 133.186C25.109 133.319 25.115 133.481 25.194 133.683C25.14 133.973 25.07 134.238 24.991 134.493C24.353 134.493 23.715 134.493 23.076 134.493ZM30.586 128.402C30.381 128.26 30.264 128.07 30.236 127.829C30.873 127.829 31.51 127.829 32.147 127.829C32.036 128.246 31.405 128.375 30.586 128.402ZM58.437 42.523C58.448 42.563 58.455 42.605 58.468 42.644C58.457 42.645 58.448 42.645 58.437 42.647C58.437 42.605 58.437 42.564 58.437 42.523ZM45.639 121.353C45.593 121.574 45.5 121.799 45.341 122.024C45.684 122.024 46.017 122.024 46.35 122.024C46.35 122.211 46.35 122.393 46.35 122.58C46.35 122.663 46.35 122.747 46.35 122.83C43.76 122.947 41.109 123.096 40.21 122.279C39.677 121.002 42.744 121.328 45.639 121.353ZM58.437 118.694C58.248 118.698 58.086 118.718 57.939 118.746C57.393 118.447 56.854 118.144 56.324 117.837C56.975 117.837 57.624 117.837 58.273 117.837C58.455 118.053 58.556 118.313 58.437 118.694ZM89.571 40.126C90.042 40.063 90.397 40.063 90.676 40.106C90.676 40.211 90.676 40.318 90.676 40.423C89.895 40.55 88.689 40.442 88.658 40.979C88.492 40.96 88.355 40.924 88.238 40.878C88.552 40.556 88.72 40.154 89.571 40.126ZM191.314 26.805C191.126 26.33 191.709 26.279 192.317 26.249C196.13 27.051 194.257 24.722 197.357 25.138C197.19 25.784 197.581 26.127 198.365 26.249C196.254 26.245 191.88 29.491 191.314 26.805ZM168.141 36.238C168.141 35.869 168.141 35.498 168.141 35.126C168.141 34.944 168.141 34.757 168.141 34.573C170.798 34.407 171.45 35.341 171.163 36.794C169.145 36.605 168.01 36.907 168.141 37.903C166.352 37.498 168 36.894 168.141 36.238ZM158.071 42.9C158.071 42.344 158.071 41.788 158.071 41.233C160.094 41.422 161.222 41.122 161.087 40.126C161.425 40.126 161.763 40.126 162.096 40.126C162.096 40.682 162.096 41.233 162.096 41.789C162.096 42.163 162.096 42.532 162.096 42.901C165.104 43.697 165.525 42.447 168.141 43.457C168.141 42.901 168.141 42.346 168.141 41.79C171.584 41.373 169.421 44.048 173.18 43.457C174.823 41.646 176.072 43.735 176.942 44.402C176.475 44.417 175.942 44.395 175.295 44.31C174.619 44.31 173.954 44.31 173.281 44.31C172.845 43.072 168.314 44.087 166.229 43.759C163.438 43.307 163.609 44.488 161.324 44.318C161.168 44.074 161.07 43.796 161.088 43.457C160.417 43.457 159.751 43.457 159.075 43.457C159.075 43.741 159.075 44.025 159.075 44.31C158.774 44.31 158.475 44.31 158.171 44.31C156.83 44.31 155.482 44.31 154.141 44.31C153.771 44.31 153.401 44.31 153.03 44.31C153.03 43.842 153.03 43.372 153.03 42.902C156.131 43.29 154.97 43.29 158.071 42.9ZM145.983 36.794C146.794 36.501 147.621 36.215 149.005 36.238C149.005 36.794 149.005 37.349 149.005 37.903C149.982 37.889 149.786 37.225 150.009 36.794C152.163 37.052 151.928 36.003 152.027 35.127C153.052 35.492 153.062 36.405 155.043 36.239C154.613 37.111 151.876 36.714 153.03 38.46C151.034 37.12 148.235 39.385 145.983 37.904C145.983 37.535 145.983 37.165 145.983 36.794ZM131.037 33.74C131.039 33.742 131.042 33.743 131.043 33.745C131.095 33.789 131.159 33.833 131.231 33.877C131.247 33.887 131.262 33.897 131.28 33.907C131.309 33.924 131.342 33.94 131.375 33.957C131.398 33.969 131.419 33.98 131.443 33.992C131.475 34.008 131.51 34.023 131.544 34.039C131.571 34.051 131.598 34.063 131.627 34.075C131.662 34.09 131.699 34.105 131.736 34.119C131.767 34.131 131.798 34.143 131.83 34.155C131.868 34.169 131.907 34.183 131.947 34.197C131.981 34.209 132.016 34.221 132.051 34.232C132.091 34.245 132.132 34.259 132.174 34.272C132.211 34.284 132.249 34.295 132.288 34.306C132.33 34.319 132.373 34.331 132.416 34.343C132.456 34.354 132.497 34.365 132.537 34.376C132.581 34.388 132.625 34.399 132.67 34.411C132.711 34.421 132.754 34.431 132.796 34.441C132.842 34.452 132.887 34.463 132.934 34.473C132.988 34.485 133.043 34.496 133.098 34.507C133.149 34.517 133.2 34.527 133.251 34.537C133.325 34.551 133.399 34.564 133.473 34.576C133.511 34.582 133.549 34.587 133.586 34.593C133.642 34.602 133.698 34.61 133.754 34.618C133.795 34.624 133.837 34.628 133.878 34.634C133.931 34.641 133.983 34.647 134.035 34.653C134.078 34.658 134.121 34.662 134.164 34.666C134.215 34.671 134.266 34.676 134.318 34.679C134.36 34.682 134.403 34.685 134.445 34.688C134.497 34.691 134.548 34.694 134.599 34.696C134.639 34.698 134.68 34.699 134.72 34.701C134.773 34.703 134.825 34.703 134.877 34.704C134.914 34.704 134.952 34.705 134.989 34.704C135.043 34.704 135.096 34.702 135.148 34.7C135.182 34.699 135.217 34.698 135.251 34.696C135.305 34.693 135.357 34.689 135.41 34.685C135.441 34.683 135.472 34.681 135.503 34.678C135.567 34.672 135.629 34.663 135.691 34.654C135.707 34.652 135.724 34.65 135.74 34.647C135.817 34.635 135.892 34.62 135.964 34.604C135.979 34.601 135.992 34.596 136.007 34.592C136.063 34.578 136.118 34.563 136.17 34.547C136.192 34.54 136.212 34.531 136.234 34.524C136.276 34.509 136.317 34.494 136.356 34.477C136.379 34.467 136.4 34.456 136.421 34.445C136.455 34.428 136.489 34.411 136.52 34.392C136.541 34.38 136.56 34.366 136.579 34.353C136.607 34.334 136.635 34.313 136.66 34.292C136.678 34.277 136.695 34.262 136.711 34.246C136.734 34.224 136.755 34.201 136.774 34.177C136.788 34.16 136.802 34.142 136.814 34.124C136.831 34.099 136.846 34.072 136.86 34.044C136.87 34.025 136.88 34.005 136.888 33.985C136.9 33.955 136.908 33.923 136.916 33.891C136.921 33.87 136.927 33.851 136.931 33.829C136.937 33.792 136.938 33.753 136.938 33.713C136.938 33.694 136.941 33.675 136.94 33.655C136.937 33.594 136.929 33.531 136.914 33.464C138.089 33.551 137.767 34.474 137.917 35.126C137.917 35.498 137.917 35.869 137.917 36.238C137.917 36.425 137.917 36.609 137.917 36.794C137.579 36.794 137.246 36.794 136.914 36.794C135.197 36.589 135.009 37.228 134.901 37.903C133.917 37.889 134.115 37.225 133.892 36.794C131.046 37.253 131.274 36.012 128.857 36.238C128.814 36.14 128.789 36.053 128.776 35.972C128.775 35.967 128.773 35.961 128.773 35.956C128.763 35.88 128.767 35.811 128.781 35.748C128.783 35.741 128.783 35.733 128.785 35.726C128.801 35.667 128.827 35.613 128.862 35.564C128.867 35.556 128.872 35.548 128.878 35.541C128.914 35.495 128.958 35.454 129.007 35.416C129.017 35.408 129.027 35.4 129.038 35.392C129.088 35.357 129.144 35.325 129.204 35.296C129.221 35.288 129.238 35.279 129.255 35.272C129.312 35.246 129.373 35.222 129.436 35.199C129.466 35.188 129.496 35.178 129.527 35.168C129.567 35.155 129.608 35.142 129.649 35.13C130.493 34.876 131.56 34.747 131.037 33.74ZM128.859 31.797C128.558 32.888 130.216 32.899 130.871 33.464C129.863 33.464 128.859 33.464 127.85 33.464C126.675 33.551 126.055 33.342 125.837 32.908C125.368 31.724 127.273 31.853 128.859 31.797ZM124.828 35.127C125.837 35.127 126.841 35.127 127.849 35.127C127.849 36.054 127.849 36.979 127.849 37.903C124.994 36.575 125.113 36.819 121.804 36.238C121.676 35.243 122.8 34.938 124.828 35.127ZM127.85 40.126C127.85 40.682 127.85 41.233 127.85 41.789C130.482 43.754 132.989 43.226 136.917 42.901C136.917 42.532 136.917 42.163 136.917 41.789C138.498 42.029 137.775 43.537 140.947 42.901C140.568 41.956 141.728 41.854 142.959 41.789C142.492 42.975 144.395 42.845 145.982 42.901C146.985 42.901 147.995 42.901 149.004 42.901C149.337 42.901 149.68 42.901 150.008 42.901C150.886 43.263 151.575 43.726 152.079 44.291C150.617 43.674 149.567 43.678 148.095 44.31C147.092 44.31 146.083 44.31 145.074 44.31C143.394 44.31 141.714 44.31 140.038 44.31C138.696 44.31 137.349 44.31 136.007 44.31C135.004 44.31 133.995 44.31 132.986 44.31C131.977 44.31 130.973 44.31 129.968 44.31C129.292 44.31 128.616 44.31 127.95 44.31C123.128 45.09 118.827 42.712 115.862 44.31C114.884 44.329 115.081 44.993 114.853 45.421C112.83 45.612 111.7 45.31 111.837 44.31C110.939 44.087 110.374 43.681 109.924 43.211C111.308 43.07 112.464 42.514 113.75 43.458C115.54 43.79 117.925 41.832 118.784 43.458C121.384 43.322 117.401 42.503 118.784 41.235C123.86 41.996 124.104 40.094 127.85 40.126ZM116.766 31.797C119.825 31.594 118.862 33.607 119.793 34.573C116.838 34.612 117.582 36.685 113.75 36.238C112.741 36.238 111.732 36.238 110.721 36.238C109.718 36.238 108.709 36.238 107.705 36.238C108.796 33.695 119.564 36.487 116.766 31.797ZM92.589 32.909C92.994 33.979 97.207 32.958 95.616 35.127C93.598 35.127 91.58 35.127 89.571 35.127C89.318 33.953 92.933 30.628 92.589 32.909ZM84.314 40.126C83.723 40.397 82.674 40.415 82.614 40.979C81.961 40.979 81.311 40.979 80.661 40.979C80.191 40.739 79.785 40.464 79.492 40.126C81.102 40.126 82.709 40.126 84.314 40.126ZM77.483 33.465C77.483 34.021 77.483 34.574 77.483 35.127C74.764 33.776 68.448 36.463 67.404 33.465C70.764 33.465 74.123 33.465 77.483 33.465ZM62.368 40.126C63.377 40.126 64.386 40.126 65.395 40.126C68.121 40.285 72.854 39.342 71.44 41.789C70.072 41.616 69.516 41 67.404 41.233C67.804 42.565 62.816 40.929 64.386 42.9C65.894 42.995 68.1 42.7 68.413 43.456C68.08 43.456 67.743 43.456 67.404 43.456C66.026 43.208 63.217 43.748 61.975 43.423C61.798 43.287 61.614 43.154 61.405 43.035C61.386 42.992 61.364 42.95 61.359 42.899C61.288 42.905 61.225 42.907 61.16 42.91C60.763 42.727 60.268 42.599 59.563 42.585C59.171 42.342 58.914 42.024 58.439 41.827C58.202 41.103 55.774 40.743 53.354 40.748C54.004 39.245 59.813 40.583 62.368 40.126ZM19.049 126.164C18.04 126.164 17.031 126.164 16.027 126.164C16.583 124.935 14.108 125.375 14.015 124.497C17.935 126.024 25.166 122.669 26.103 126.164C22.94 126.803 23.658 125.295 22.076 125.052C22.076 125.608 22.076 126.164 22.076 126.719C20.689 126.745 19.862 126.459 19.049 126.164ZM22.076 129.496C23.866 129.088 22.218 128.486 22.076 127.829C25.24 128.466 24.522 126.958 26.103 126.72C26.897 126.76 27.661 126.82 28.002 127.111C27.136 127.594 28.161 129.128 27.966 130.115C27.479 130.167 26.861 130.148 26.103 130.052C26.103 130.361 26.103 130.67 26.103 130.981C25.836 130.973 25.536 130.949 25.194 130.905C25.168 130.999 25.162 131.083 25.163 131.162C24.134 131.162 23.106 131.162 22.076 131.162C22.076 130.608 22.076 130.052 22.076 129.496ZM45.34 145.893C45.34 146.262 45.34 146.635 45.34 147.004C45.319 147.544 44.112 147.435 43.332 147.56C41.398 147.496 44.513 145.699 43.332 144.23C44.331 144.23 45.34 144.23 46.348 144.23C46.636 145.125 45.397 145.185 45.34 145.893ZM54.412 147.005C53.741 147.005 53.065 147.005 52.395 147.005C52.051 148.119 52.602 148.739 54.412 148.668C54.412 149.224 54.412 149.779 54.412 150.335C50.599 151.137 52.477 148.81 49.376 149.223C50.027 148.66 51.686 148.651 51.385 147.56C49.762 147.717 49.652 147.034 48.367 147.004C47.956 145.666 50.208 145.798 49.376 144.23C52.03 144.087 52.674 143.084 52.394 145.337C52.486 146.212 54.963 145.776 54.412 147.005ZM61.464 145.337C61.464 145.893 61.464 146.448 61.464 147.004C59.446 147.004 57.428 147.004 55.421 147.004C54.922 144.88 58.916 145.233 57.429 142.563C59.374 142.787 57.523 145.104 61.465 144.23C61.464 144.599 61.464 144.969 61.464 145.337ZM72.543 147.005C68.705 147.452 69.454 145.379 66.5 145.338C67.197 143.848 64.418 144.268 63.473 143.675C63.473 143.306 63.473 142.933 63.473 142.564C61.85 142.719 61.74 142.038 60.455 142.009C60.455 141.64 60.455 141.271 60.455 140.9C55.847 140.746 59.644 138.073 57.428 137.568C57.428 136.459 57.428 135.347 57.428 134.236C55.847 134.291 53.937 134.165 54.412 135.348C54.584 136.178 54.048 137.398 55.421 137.569C55.191 138.003 55.389 138.666 54.412 138.68C51.821 139.289 50.9 140.818 49.376 142.01C50.374 142.01 51.385 142.01 52.394 142.01C52.236 142.66 50.556 142.478 49.376 142.565C46.963 142.784 49.928 140.038 46.349 140.9C46.349 141.271 46.349 141.64 46.349 142.009C45.985 141.402 41.943 139.687 42.324 142.009C42.324 142.564 42.324 143.12 42.324 143.676C38.297 143.598 37.393 147.214 33.252 145.339C32.783 144.156 34.693 144.283 36.279 144.232C35.624 143.665 33.96 143.655 34.261 142.565C34.916 141.998 36.581 141.991 36.279 140.9C31.5 140.692 35.829 138.65 36.245 137.686C38.188 137.376 38.311 136.808 34.261 136.173C34.261 136.164 34.261 136.156 34.261 136.147C35.118 136.087 34.954 135.463 35.165 135.046C32.97 133.889 35.675 133.464 35.165 131.716C34.447 131.589 33.892 131.552 33.463 131.584C33.355 131.034 33.312 130.448 32.45 130.314C32.806 130.109 33.334 129.998 34.164 130.053C34.164 129.866 34.164 129.682 34.164 129.497C35.954 129.089 34.306 128.487 34.164 127.83C32.594 126.163 39.751 126.163 38.191 127.83C40.939 128.077 43.03 127.962 44.872 127.71C43.934 128.912 43.02 130.127 43.332 132.017C42.146 132.105 40.472 131.923 40.304 132.573C42.214 132.82 46.375 131.817 45.34 133.684C46.931 133.629 48.836 133.758 48.367 132.573C48.367 132.017 48.367 131.462 48.367 130.906C48.367 130.355 48.367 129.799 48.367 129.243C48.367 128.523 48.367 127.803 48.367 127.083C48.995 126.957 49.625 126.833 50.28 126.721C51.67 126.746 52.496 126.461 53.307 126.165C53.606 126.165 53.911 126.165 54.213 126.165C54.478 126.341 54.599 126.597 54.413 127.022C53.227 127.107 51.553 126.925 51.386 127.576C53.611 127.647 51.816 129.93 52.395 130.906C53.404 130.906 54.412 130.906 55.421 130.906C54.12 133.106 58.735 132.04 57.429 134.236C57.772 134.236 58.105 134.236 58.438 134.236C58.438 134.61 58.438 134.979 58.438 135.348C59.447 135.348 60.456 135.348 61.465 135.348C61.465 136.09 61.465 136.828 61.465 137.569C62.994 137.39 63.556 137.745 63.834 138.255C63.175 138.388 62.426 138.471 61.359 138.379C61.359 138.751 61.359 139.119 61.359 139.488C62.327 139.488 63.295 139.488 64.263 139.488C64.293 139.558 64.329 139.625 64.368 139.69C64.309 140.516 64.359 141.394 62.368 141.155C62.535 141.805 64.209 141.623 65.395 141.709C65.395 141.525 65.395 141.34 65.395 141.155C66.394 140.994 67.01 141.044 67.497 141.165C67.385 142.066 67.233 142.987 69.517 142.565C67.666 144.458 67.212 144.207 72.544 144.232C72.543 145.155 72.543 146.08 72.543 147.005ZM106.79 158.659C104.42 159.252 99.15 159.697 97.731 157.552C98.381 156.985 100.05 156.975 99.749 155.885C101.324 156.125 100.607 157.633 103.774 156.996C105.969 156.895 106.978 157.451 106.79 158.659ZM231.711 158.659C230.217 158.188 229.541 157.264 229.693 155.885C230.036 155.885 230.363 155.885 230.702 155.885C229.672 157.75 233.834 156.75 235.736 156.996C234.754 157.748 232.344 157.714 231.711 158.659ZM315.319 180.865C312.319 180.854 309.182 180.916 309.276 179.198C312.002 179.36 316.741 178.419 315.319 180.865ZM324.391 180.865C324.047 180.865 323.715 180.865 323.382 180.865C323.382 180.678 323.382 180.496 323.382 180.31C321.14 180.549 317.921 181.587 317.338 179.754C320.386 178.472 327.727 179.56 332.449 179.198C332.043 181.876 327.168 182.42 324.391 180.865ZM372.738 167.544C371.557 167.452 371.89 166.53 371.729 165.877C371.729 165.693 371.729 165.508 371.729 165.321C372.738 165.321 373.748 165.321 374.757 165.321C375.912 167.069 373.176 166.672 372.738 167.544ZM466.423 159.771C465.028 161.04 459.412 159.978 456.353 160.327C456.696 159.28 451.308 157.776 456.353 157.553C457.159 160.239 467.36 157.525 466.423 159.771ZM484.557 166.988C484.557 167.543 484.557 168.099 484.557 168.653C483.213 168.653 481.872 168.653 480.53 168.653C480.53 168.281 480.53 167.913 480.53 167.544C477.908 167.877 476.91 167.321 477.514 165.877C476.078 165.923 474.659 165.967 474.487 165.321C475.829 165.321 477.17 165.321 478.512 165.321C478.142 164.378 479.303 164.274 480.53 164.212C482.111 164.45 481.393 165.958 484.557 165.321C484.415 165.979 482.767 166.58 484.557 166.988ZM490.605 163.656C489.601 163.656 488.592 163.656 487.583 163.656C486.77 163.951 485.944 164.237 484.556 164.212C484.556 163.656 484.556 163.101 484.556 162.545C482.974 162.787 483.692 164.296 480.529 163.657C481.465 160.161 488.696 163.516 492.617 161.99C492.524 162.868 490.049 162.427 490.605 163.656Z" fill="#97FBEA" fill-opacity="0.8"/>
<path d="M460.379 67.627C458.028 67.627 455.683 67.627 453.327 67.627C453.327 67.996 453.327 68.365 453.327 68.733C455.106 69.607 459.767 68.89 460.379 70.4C460.494 69.722 460.682 69.085 462.398 69.289C462.299 68.42 462.533 67.366 460.379 67.627Z" fill="#97FBEA" fill-opacity="0.8"/>
<path d="M474.486 64.297C472.675 64.221 472.129 64.846 472.468 65.96C474.897 66.186 474.663 64.948 477.513 65.404C477.637 64.408 476.51 64.106 474.486 64.297Z" fill="#97FBEA" fill-opacity="0.8"/>
</svg>
